G75*
%MOIN*%
%OFA0B0*%
%FSLAX25Y25*%
%IPPOS*%
%LPD*%
%AMOC8*
5,1,8,0,0,1.08239X$1,22.5*
%
%ADD10C,0.00098*%
%ADD11R,0.00330X0.00334*%
%ADD12R,0.00330X0.00333*%
%ADD13R,0.00670X0.00334*%
%ADD14R,0.01000X0.00333*%
%ADD15R,0.01000X0.00334*%
%ADD16R,0.01670X0.00333*%
%ADD17R,0.01670X0.00334*%
%ADD18R,0.02000X0.00333*%
%ADD19R,0.02330X0.00333*%
%ADD20R,0.02330X0.00334*%
%ADD21R,0.03000X0.00333*%
%ADD22R,0.03000X0.00334*%
%ADD23R,0.01330X0.00333*%
%ADD24R,0.01340X0.00333*%
%ADD25R,0.01330X0.00334*%
%ADD26R,0.01340X0.00334*%
%ADD27R,0.01660X0.00334*%
%ADD28R,0.01660X0.00333*%
%ADD29R,0.00670X0.00333*%
%ADD30R,0.00660X0.00333*%
%ADD31R,0.00660X0.00334*%
%ADD32R,0.02660X0.00334*%
%ADD33R,0.04000X0.00334*%
%ADD34R,0.05670X0.00333*%
%ADD35R,0.05660X0.00333*%
%ADD36R,0.06670X0.00333*%
%ADD37R,0.06660X0.00333*%
%ADD38R,0.07340X0.00334*%
%ADD39R,0.07330X0.00334*%
%ADD40R,0.07660X0.00333*%
%ADD41R,0.07670X0.00333*%
%ADD42R,0.07330X0.00333*%
%ADD43R,0.07000X0.00333*%
%ADD44R,0.06670X0.00334*%
%ADD45R,0.06330X0.00333*%
%ADD46R,0.06000X0.00333*%
%ADD47R,0.06000X0.00334*%
%ADD48R,0.05000X0.00334*%
%ADD49R,0.05000X0.00333*%
%ADD50R,0.04660X0.00333*%
%ADD51R,0.04670X0.00333*%
%ADD52R,0.04660X0.00334*%
%ADD53R,0.04340X0.00334*%
%ADD54R,0.04330X0.00333*%
%ADD55R,0.04340X0.00333*%
%ADD56R,0.04000X0.00333*%
%ADD57R,0.00340X0.00334*%
%ADD58R,0.03340X0.00333*%
%ADD59R,0.03330X0.00333*%
%ADD60R,0.02670X0.00333*%
%ADD61R,0.03330X0.00334*%
%ADD62R,0.03670X0.00334*%
%ADD63R,0.05330X0.00333*%
%ADD64R,0.07340X0.00333*%
%ADD65R,0.08000X0.00333*%
%ADD66R,0.08330X0.00334*%
%ADD67R,0.08660X0.00334*%
%ADD68R,0.09330X0.00333*%
%ADD69R,0.09660X0.00333*%
%ADD70R,0.10000X0.00333*%
%ADD71R,0.10670X0.00333*%
%ADD72R,0.11670X0.00334*%
%ADD73R,0.12000X0.00334*%
%ADD74R,0.11670X0.00333*%
%ADD75R,0.12000X0.00333*%
%ADD76R,0.11330X0.00334*%
%ADD77R,0.10330X0.00333*%
%ADD78R,0.09000X0.00333*%
%ADD79R,0.09340X0.00333*%
%ADD80R,0.07670X0.00334*%
%ADD81R,0.08000X0.00334*%
%ADD82R,0.10660X0.00334*%
%ADD83R,0.05340X0.00333*%
%ADD84R,0.02000X0.00334*%
%ADD85R,0.03670X0.00333*%
%ADD86R,0.05340X0.00334*%
%ADD87R,0.05330X0.00334*%
%ADD88R,0.04330X0.00334*%
%ADD89R,0.04670X0.00334*%
%ADD90R,0.05660X0.00334*%
%ADD91R,0.09340X0.00334*%
%ADD92R,0.02670X0.00334*%
%ADD93R,0.10330X0.00334*%
%ADD94R,0.10660X0.00333*%
%ADD95R,0.10340X0.00333*%
%ADD96R,0.11660X0.00334*%
%ADD97R,0.10000X0.00334*%
%ADD98R,0.08670X0.00333*%
%ADD99R,0.02660X0.00333*%
%ADD100R,0.03660X0.00333*%
%ADD101R,0.03340X0.00334*%
%ADD102R,0.02340X0.00333*%
%ADD103R,0.03660X0.00334*%
%ADD104R,0.07660X0.00334*%
%ADD105R,0.07000X0.00334*%
%ADD106C,0.00100*%
%ADD107C,0.08661*%
%ADD108C,0.08661*%
D10*
X0003092Y0085317D02*
X0003020Y0087391D01*
X0002998Y0089466D01*
X0003027Y0091541D01*
X0003108Y0093614D01*
X0003238Y0095685D01*
X0003420Y0097752D01*
X0003652Y0099814D01*
X0003935Y0101870D01*
X0004268Y0103918D01*
X0004651Y0105958D01*
X0005084Y0107987D01*
X0005567Y0110005D01*
X0006099Y0112011D01*
X0006680Y0114003D01*
X0007310Y0115980D01*
X0007987Y0117942D01*
X0008713Y0119886D01*
X0009486Y0121811D01*
X0010307Y0123717D01*
X0011173Y0125603D01*
X0012086Y0127466D01*
X0013044Y0129307D01*
X0014047Y0131124D01*
X0015094Y0132915D01*
X0016184Y0134681D01*
X0017318Y0136419D01*
X0018494Y0138129D01*
X0019711Y0139809D01*
X0020969Y0141459D01*
X0022268Y0143078D01*
X0023605Y0144664D01*
X0024981Y0146217D01*
X0026395Y0147736D01*
X0027846Y0149220D01*
X0029332Y0150668D01*
X0030854Y0152079D01*
X0032409Y0153452D01*
X0033998Y0154787D01*
X0035619Y0156083D01*
X0037272Y0157338D01*
X0038954Y0158552D01*
X0040666Y0159725D01*
X0042406Y0160855D01*
X0044174Y0161943D01*
X0045967Y0162987D01*
X0047785Y0163986D01*
X0049628Y0164941D01*
X0051493Y0165850D01*
X0053380Y0166713D01*
X0055288Y0167530D01*
X0057215Y0168300D01*
X0059160Y0169022D01*
X0061123Y0169696D01*
X0063101Y0170322D01*
X0065094Y0170900D01*
X0067101Y0171428D01*
X0069120Y0171907D01*
X0071150Y0172337D01*
X0073190Y0172716D01*
X0075239Y0173045D01*
X0077295Y0173324D01*
X0079358Y0173553D01*
X0081425Y0173731D01*
X0083496Y0173858D01*
X0085570Y0173934D01*
X0087645Y0173960D01*
X0104371Y0172292D02*
X0104556Y0172252D01*
X0104740Y0172207D01*
X0104923Y0172158D01*
X0105105Y0172104D01*
X0105285Y0172046D01*
X0105464Y0171983D01*
X0105641Y0171917D01*
X0105817Y0171846D01*
X0105991Y0171771D01*
X0106162Y0171691D01*
X0106332Y0171608D01*
X0106500Y0171520D01*
X0106666Y0171428D01*
X0106829Y0171332D01*
X0106990Y0171233D01*
X0107149Y0171129D01*
X0107305Y0171022D01*
X0107458Y0170911D01*
X0107609Y0170796D01*
X0107757Y0170678D01*
X0107902Y0170556D01*
X0108044Y0170430D01*
X0108182Y0170302D01*
X0108318Y0170169D01*
X0108450Y0170034D01*
X0108579Y0169895D01*
X0108705Y0169754D01*
X0108827Y0169609D01*
X0108946Y0169461D01*
X0109061Y0169311D01*
X0109172Y0169158D01*
X0109280Y0169002D01*
X0109384Y0168844D01*
X0109484Y0168683D01*
X0109580Y0168520D01*
X0109672Y0168354D01*
X0109760Y0168186D01*
X0109843Y0168016D01*
X0109923Y0167845D01*
X0109999Y0167671D01*
X0110070Y0167496D01*
X0110137Y0167319D01*
X0110200Y0167140D01*
X0110258Y0166960D01*
X0110312Y0166778D01*
X0110361Y0166595D01*
X0110407Y0166411D01*
X0110447Y0166226D01*
X0110483Y0166041D01*
X0110515Y0165854D01*
X0110542Y0165666D01*
X0110564Y0165478D01*
X0110582Y0165290D01*
X0110596Y0165101D01*
X0110604Y0164912D01*
X0110609Y0164723D01*
X0110608Y0164533D01*
X0110603Y0164344D01*
X0110594Y0164155D01*
X0110579Y0163966D01*
X0110486Y0162774D01*
X0110422Y0161580D01*
X0110386Y0160385D01*
X0110380Y0159190D01*
X0110403Y0157995D01*
X0110455Y0156801D01*
X0110536Y0155608D01*
X0110646Y0154418D01*
X0110786Y0153231D01*
X0110953Y0152047D01*
X0111150Y0150868D01*
X0111376Y0149694D01*
X0111629Y0148526D01*
X0111912Y0147364D01*
X0112222Y0146210D01*
X0112561Y0145064D01*
X0112927Y0143926D01*
X0113321Y0142797D01*
X0113742Y0141678D01*
X0114190Y0140570D01*
X0114666Y0139473D01*
X0115167Y0138388D01*
X0115695Y0137316D01*
X0116249Y0136257D01*
X0116829Y0135211D01*
X0117434Y0134180D01*
X0118064Y0133164D01*
X0118718Y0132164D01*
X0119397Y0131180D01*
X0120099Y0130213D01*
X0120825Y0129263D01*
X0121573Y0128331D01*
X0122344Y0127417D01*
X0123137Y0126523D01*
X0123952Y0125648D01*
X0124788Y0124793D01*
X0124788Y0124794D02*
X0125643Y0123958D01*
X0126518Y0123143D01*
X0127413Y0122349D01*
X0128326Y0121578D01*
X0129259Y0120829D01*
X0130209Y0120103D01*
X0131177Y0119400D01*
X0132161Y0118721D01*
X0133162Y0118067D01*
X0134178Y0117437D01*
X0135210Y0116832D01*
X0136255Y0116252D01*
X0137315Y0115698D01*
X0138388Y0115169D01*
X0139473Y0114668D01*
X0140571Y0114192D01*
X0141679Y0113744D01*
X0142798Y0113322D01*
X0143928Y0112929D01*
X0145066Y0112562D01*
X0146213Y0112224D01*
X0147368Y0111913D01*
X0148530Y0111631D01*
X0149698Y0111378D01*
X0150873Y0111152D01*
X0152052Y0110956D01*
X0153236Y0110788D01*
X0154424Y0110649D01*
X0155615Y0110539D01*
X0156808Y0110458D01*
X0158003Y0110407D01*
X0159198Y0110384D01*
X0160394Y0110391D01*
X0161590Y0110426D01*
X0162784Y0110491D01*
X0162974Y0110501D01*
X0163164Y0110506D01*
X0163354Y0110507D01*
X0163544Y0110503D01*
X0163734Y0110495D01*
X0163924Y0110481D01*
X0164113Y0110464D01*
X0164302Y0110442D01*
X0164490Y0110415D01*
X0164677Y0110383D01*
X0164864Y0110348D01*
X0165050Y0110307D01*
X0165235Y0110262D01*
X0165418Y0110213D01*
X0165601Y0110159D01*
X0165781Y0110101D01*
X0165961Y0110038D01*
X0166139Y0109971D01*
X0166315Y0109900D01*
X0166490Y0109824D01*
X0166662Y0109744D01*
X0166833Y0109661D01*
X0167001Y0109573D01*
X0167168Y0109480D01*
X0167332Y0109384D01*
X0167493Y0109284D01*
X0167652Y0109180D01*
X0167809Y0109073D01*
X0167963Y0108961D01*
X0168114Y0108846D01*
X0168262Y0108727D01*
X0168408Y0108604D01*
X0168550Y0108478D01*
X0168690Y0108349D01*
X0168826Y0108216D01*
X0168958Y0108080D01*
X0169088Y0107941D01*
X0169214Y0107799D01*
X0169337Y0107653D01*
X0169456Y0107505D01*
X0169571Y0107354D01*
X0169683Y0107200D01*
X0169791Y0107044D01*
X0169895Y0106885D01*
X0169995Y0106723D01*
X0170091Y0106559D01*
X0170183Y0106393D01*
X0170272Y0106225D01*
X0170356Y0106054D01*
X0170436Y0105882D01*
X0170511Y0105707D01*
X0170583Y0105531D01*
X0170650Y0105353D01*
X0170713Y0105174D01*
X0170771Y0104993D01*
X0170825Y0104810D01*
X0170875Y0104627D01*
X0170920Y0104442D01*
X0170960Y0104256D01*
X0170996Y0104070D01*
X0083647Y0004762D02*
X0081570Y0004891D01*
X0079497Y0005072D01*
X0077428Y0005303D01*
X0075366Y0005585D01*
X0073312Y0005917D01*
X0071266Y0006300D01*
X0069230Y0006733D01*
X0067206Y0007215D01*
X0065194Y0007747D01*
X0063195Y0008328D01*
X0061212Y0008958D01*
X0059244Y0009636D01*
X0057294Y0010362D01*
X0055362Y0011136D01*
X0053449Y0011957D01*
X0051558Y0012825D01*
X0049688Y0013738D01*
X0047841Y0014698D01*
X0046018Y0015702D01*
X0044220Y0016750D01*
X0042449Y0017843D01*
X0040704Y0018978D01*
X0038989Y0020156D01*
X0037302Y0021376D01*
X0035646Y0022636D01*
X0034021Y0023937D01*
X0032429Y0025277D01*
X0030870Y0026656D01*
X0029345Y0028072D01*
X0027856Y0029526D01*
X0026402Y0031015D01*
X0024986Y0032540D01*
X0023607Y0034099D01*
X0022267Y0035691D01*
X0020966Y0037316D01*
X0019706Y0038972D01*
X0018486Y0040659D01*
X0017308Y0042374D01*
X0016173Y0044119D01*
X0015080Y0045890D01*
X0014032Y0047688D01*
X0013028Y0049511D01*
X0012068Y0051358D01*
X0011155Y0053228D01*
X0010287Y0055119D01*
X0009466Y0057032D01*
X0008692Y0058964D01*
X0007966Y0060914D01*
X0007288Y0062882D01*
X0006658Y0064865D01*
X0006077Y0066864D01*
X0005545Y0068876D01*
X0005063Y0070901D01*
X0004630Y0072936D01*
X0004247Y0074982D01*
X0003915Y0077036D01*
X0003633Y0079099D01*
X0003402Y0081167D01*
X0003221Y0083240D01*
X0003092Y0085317D01*
X0083648Y0004761D02*
X0085722Y0004689D01*
X0087797Y0004667D01*
X0089872Y0004696D01*
X0091945Y0004777D01*
X0094016Y0004908D01*
X0096083Y0005089D01*
X0098145Y0005322D01*
X0100201Y0005604D01*
X0102249Y0005937D01*
X0104289Y0006320D01*
X0106318Y0006754D01*
X0108336Y0007236D01*
X0110342Y0007768D01*
X0112334Y0008349D01*
X0114311Y0008979D01*
X0116273Y0009657D01*
X0118217Y0010383D01*
X0120142Y0011156D01*
X0122048Y0011976D01*
X0123934Y0012843D01*
X0125798Y0013755D01*
X0127638Y0014713D01*
X0129455Y0015716D01*
X0131246Y0016763D01*
X0133012Y0017854D01*
X0134750Y0018987D01*
X0136460Y0020163D01*
X0138140Y0021381D01*
X0139790Y0022639D01*
X0141409Y0023937D01*
X0142995Y0025275D01*
X0144549Y0026651D01*
X0146068Y0028065D01*
X0147551Y0029516D01*
X0148999Y0031002D01*
X0150410Y0032524D01*
X0151784Y0034079D01*
X0153118Y0035668D01*
X0154414Y0037289D01*
X0155669Y0038942D01*
X0156883Y0040624D01*
X0158056Y0042336D01*
X0159187Y0044076D01*
X0160274Y0045844D01*
X0161318Y0047637D01*
X0162317Y0049456D01*
X0163272Y0051298D01*
X0164181Y0053163D01*
X0165045Y0055050D01*
X0165861Y0056958D01*
X0166631Y0058885D01*
X0167353Y0060830D01*
X0168028Y0062793D01*
X0168654Y0064771D01*
X0169231Y0066765D01*
X0169759Y0068771D01*
X0170238Y0070790D01*
X0170668Y0072821D01*
X0171047Y0074861D01*
X0171376Y0076909D01*
X0171655Y0078966D01*
X0171884Y0081028D01*
X0172062Y0083096D01*
X0172189Y0085167D01*
X0172265Y0087241D01*
X0172291Y0089315D01*
X0172291Y0089316D02*
X0172271Y0091169D01*
X0172210Y0093022D01*
X0172109Y0094873D01*
X0171967Y0096721D01*
X0171785Y0098566D01*
X0171562Y0100406D01*
X0171300Y0102241D01*
X0170997Y0104070D01*
X0104372Y0172293D02*
X0102534Y0172642D01*
X0100689Y0172951D01*
X0098837Y0173219D01*
X0096980Y0173446D01*
X0095119Y0173631D01*
X0093254Y0173776D01*
X0091386Y0173879D01*
X0089516Y0173941D01*
X0087645Y0173961D01*
D11*
X0088665Y0141670D03*
X0088665Y0129670D03*
X0111665Y0107670D03*
X0093665Y0100670D03*
X0112665Y0080670D03*
X0088665Y0050670D03*
X0088665Y0037670D03*
X0064665Y0080670D03*
D12*
X0082665Y0085337D03*
X0088665Y0050337D03*
X0088665Y0050004D03*
X0088665Y0038337D03*
X0088665Y0038004D03*
X0088665Y0129337D03*
X0088665Y0130004D03*
X0088665Y0142004D03*
X0088665Y0142337D03*
D13*
X0088165Y0126670D03*
X0087835Y0125670D03*
X0086835Y0121670D03*
X0090835Y0120670D03*
X0092165Y0115670D03*
X0093835Y0093670D03*
X0093835Y0082670D03*
X0093835Y0081670D03*
X0083165Y0093670D03*
X0064835Y0099670D03*
X0085165Y0064670D03*
X0089835Y0055670D03*
X0087835Y0054670D03*
X0088835Y0038670D03*
D14*
X0088670Y0039004D03*
X0088670Y0039337D03*
X0088670Y0051337D03*
X0088670Y0052004D03*
X0089330Y0054004D03*
X0089670Y0055004D03*
X0089670Y0055337D03*
X0090000Y0056004D03*
X0090000Y0056337D03*
X0090330Y0057337D03*
X0090330Y0058004D03*
X0090670Y0059004D03*
X0090670Y0059337D03*
X0091000Y0060004D03*
X0091000Y0060337D03*
X0091330Y0061004D03*
X0091330Y0061337D03*
X0091670Y0062337D03*
X0091670Y0063004D03*
X0092000Y0064004D03*
X0092000Y0064337D03*
X0092330Y0065004D03*
X0092330Y0065337D03*
X0092670Y0066004D03*
X0092670Y0066337D03*
X0092670Y0067004D03*
X0093000Y0067337D03*
X0093000Y0068004D03*
X0093330Y0069004D03*
X0093330Y0069337D03*
X0093670Y0070004D03*
X0093670Y0070337D03*
X0094000Y0071004D03*
X0094000Y0071337D03*
X0094000Y0072004D03*
X0094330Y0072337D03*
X0094330Y0073004D03*
X0094670Y0074004D03*
X0094670Y0074337D03*
X0095000Y0075004D03*
X0095000Y0075337D03*
X0095330Y0076337D03*
X0095330Y0077004D03*
X0095670Y0078004D03*
X0096000Y0079004D03*
X0096000Y0079337D03*
X0096330Y0080004D03*
X0096330Y0080337D03*
X0096670Y0081337D03*
X0097000Y0083004D03*
X0097000Y0083337D03*
X0094000Y0084004D03*
X0094000Y0084337D03*
X0094000Y0085004D03*
X0093670Y0083004D03*
X0093670Y0081337D03*
X0093670Y0081004D03*
X0088670Y0080337D03*
X0088670Y0080004D03*
X0088670Y0083004D03*
X0088670Y0084337D03*
X0094000Y0090004D03*
X0094000Y0090337D03*
X0094000Y0091004D03*
X0094000Y0091337D03*
X0094000Y0092004D03*
X0094000Y0092337D03*
X0093670Y0094337D03*
X0093000Y0096337D03*
X0093330Y0099004D03*
X0093330Y0099337D03*
X0096330Y0100004D03*
X0096330Y0100337D03*
X0096000Y0101004D03*
X0096000Y0101337D03*
X0095670Y0102337D03*
X0095330Y0104004D03*
X0095000Y0105004D03*
X0095000Y0105337D03*
X0094670Y0106004D03*
X0094670Y0106337D03*
X0094330Y0107337D03*
X0094330Y0108004D03*
X0094000Y0108337D03*
X0094000Y0109004D03*
X0093670Y0110004D03*
X0093670Y0110337D03*
X0093330Y0111004D03*
X0093330Y0111337D03*
X0093000Y0112004D03*
X0093000Y0112337D03*
X0093000Y0113004D03*
X0092670Y0113337D03*
X0092670Y0114004D03*
X0092670Y0114337D03*
X0092330Y0115004D03*
X0092330Y0115337D03*
X0092000Y0116004D03*
X0092000Y0116337D03*
X0091670Y0117004D03*
X0091670Y0117337D03*
X0091670Y0118004D03*
X0091330Y0118337D03*
X0091330Y0119004D03*
X0091000Y0120004D03*
X0091000Y0120337D03*
X0090670Y0121004D03*
X0090670Y0121337D03*
X0090330Y0122337D03*
X0090330Y0123004D03*
X0090000Y0123337D03*
X0090000Y0124004D03*
X0089670Y0125004D03*
X0089670Y0125337D03*
X0089330Y0126004D03*
X0089330Y0126337D03*
X0088000Y0126337D03*
X0088000Y0126004D03*
X0087670Y0125337D03*
X0087670Y0125004D03*
X0087330Y0124004D03*
X0087330Y0123337D03*
X0087000Y0122337D03*
X0087000Y0122004D03*
X0086670Y0121337D03*
X0086670Y0121004D03*
X0086330Y0120337D03*
X0086330Y0120004D03*
X0086000Y0119004D03*
X0086000Y0118337D03*
X0085670Y0117337D03*
X0085670Y0117004D03*
X0085330Y0116337D03*
X0085330Y0116004D03*
X0085000Y0115337D03*
X0085000Y0115004D03*
X0084670Y0114004D03*
X0084670Y0113337D03*
X0084330Y0113004D03*
X0084330Y0112337D03*
X0084330Y0112004D03*
X0084000Y0111337D03*
X0084000Y0111004D03*
X0083670Y0110337D03*
X0083670Y0110004D03*
X0083330Y0109004D03*
X0083330Y0108337D03*
X0083000Y0108004D03*
X0083000Y0107337D03*
X0083000Y0107004D03*
X0082670Y0106337D03*
X0082670Y0106004D03*
X0082330Y0105337D03*
X0082330Y0105004D03*
X0082000Y0104004D03*
X0082000Y0103337D03*
X0081670Y0103004D03*
X0081670Y0102337D03*
X0081330Y0101337D03*
X0081330Y0101004D03*
X0081000Y0100337D03*
X0081000Y0100004D03*
X0080670Y0099004D03*
X0080330Y0097337D03*
X0080330Y0097004D03*
X0083330Y0095004D03*
X0083330Y0094337D03*
X0083330Y0094004D03*
X0083000Y0093004D03*
X0083000Y0092337D03*
X0083000Y0092004D03*
X0083000Y0091337D03*
X0083000Y0091004D03*
X0083000Y0090337D03*
X0083000Y0090004D03*
X0083000Y0089337D03*
X0083000Y0084337D03*
X0080330Y0083337D03*
X0080330Y0083004D03*
X0080670Y0082004D03*
X0080670Y0081337D03*
X0081000Y0080337D03*
X0081000Y0080004D03*
X0081330Y0079337D03*
X0081330Y0079004D03*
X0081670Y0078004D03*
X0081670Y0077337D03*
X0082000Y0077004D03*
X0082000Y0076337D03*
X0082000Y0076004D03*
X0082330Y0075337D03*
X0082330Y0075004D03*
X0082670Y0074337D03*
X0082670Y0074004D03*
X0083000Y0073337D03*
X0083000Y0073004D03*
X0083000Y0072337D03*
X0083330Y0072004D03*
X0083330Y0071337D03*
X0083330Y0071004D03*
X0083670Y0070337D03*
X0083670Y0070004D03*
X0084000Y0069337D03*
X0084000Y0069004D03*
X0084330Y0068337D03*
X0084330Y0068004D03*
X0084330Y0067337D03*
X0084670Y0067004D03*
X0084670Y0066337D03*
X0084670Y0066004D03*
X0085000Y0065337D03*
X0085000Y0065004D03*
X0085330Y0064337D03*
X0085330Y0064004D03*
X0085670Y0063004D03*
X0085670Y0062337D03*
X0086000Y0062004D03*
X0086000Y0061337D03*
X0086000Y0061004D03*
X0086330Y0060337D03*
X0086330Y0060004D03*
X0086670Y0059337D03*
X0086670Y0059004D03*
X0087000Y0058004D03*
X0087000Y0057337D03*
X0087330Y0056337D03*
X0087670Y0055337D03*
X0087670Y0055004D03*
X0088000Y0054337D03*
X0088000Y0054004D03*
X0088670Y0092004D03*
X0088670Y0092337D03*
X0088330Y0093337D03*
X0088330Y0094004D03*
X0087000Y0095004D03*
X0087000Y0096004D03*
X0090000Y0096004D03*
X0090000Y0096337D03*
X0083670Y0099004D03*
X0096670Y0099004D03*
X0097000Y0097337D03*
X0097000Y0097004D03*
X0101670Y0104004D03*
X0088670Y0128004D03*
X0088670Y0128337D03*
X0088670Y0129004D03*
X0088670Y0141004D03*
X0088670Y0141337D03*
D15*
X0088670Y0140670D03*
X0088670Y0128670D03*
X0089330Y0126670D03*
X0089670Y0124670D03*
X0090000Y0123670D03*
X0090330Y0122670D03*
X0090670Y0121670D03*
X0091000Y0119670D03*
X0091330Y0118670D03*
X0091670Y0117670D03*
X0092000Y0116670D03*
X0092330Y0114670D03*
X0092670Y0113670D03*
X0093000Y0112670D03*
X0093330Y0111670D03*
X0093670Y0109670D03*
X0094000Y0108670D03*
X0094330Y0107670D03*
X0094670Y0106670D03*
X0095000Y0104670D03*
X0095330Y0103670D03*
X0095670Y0102670D03*
X0096000Y0101670D03*
X0096330Y0099670D03*
X0096670Y0098670D03*
X0097000Y0097670D03*
X0093670Y0094670D03*
X0093330Y0095670D03*
X0094000Y0092670D03*
X0094000Y0091670D03*
X0094000Y0090670D03*
X0094000Y0089670D03*
X0094000Y0084670D03*
X0097000Y0082670D03*
X0096670Y0081670D03*
X0096330Y0080670D03*
X0095670Y0077670D03*
X0095330Y0076670D03*
X0095000Y0075670D03*
X0094670Y0073670D03*
X0094330Y0072670D03*
X0094000Y0071670D03*
X0093670Y0070670D03*
X0093330Y0068670D03*
X0093000Y0067670D03*
X0092670Y0066670D03*
X0092330Y0065670D03*
X0092330Y0064670D03*
X0092000Y0063670D03*
X0091670Y0062670D03*
X0091330Y0061670D03*
X0091000Y0060670D03*
X0091000Y0059670D03*
X0090670Y0058670D03*
X0090330Y0057670D03*
X0090000Y0056670D03*
X0087670Y0055670D03*
X0087330Y0056670D03*
X0087000Y0057670D03*
X0086670Y0058670D03*
X0086330Y0060670D03*
X0086000Y0061670D03*
X0085670Y0062670D03*
X0085330Y0063670D03*
X0085000Y0065670D03*
X0084670Y0066670D03*
X0084330Y0067670D03*
X0084000Y0068670D03*
X0083670Y0069670D03*
X0083670Y0070670D03*
X0083330Y0071670D03*
X0083000Y0072670D03*
X0082670Y0073670D03*
X0082330Y0075670D03*
X0082000Y0076670D03*
X0081670Y0077670D03*
X0081330Y0078670D03*
X0081000Y0080670D03*
X0080670Y0081670D03*
X0080330Y0082670D03*
X0083000Y0082670D03*
X0083330Y0081670D03*
X0083000Y0084670D03*
X0083000Y0089670D03*
X0083000Y0090670D03*
X0083000Y0091670D03*
X0083000Y0092670D03*
X0083330Y0094670D03*
X0083670Y0095670D03*
X0087000Y0095670D03*
X0090000Y0095670D03*
X0081670Y0102670D03*
X0082000Y0103670D03*
X0082330Y0104670D03*
X0082670Y0106670D03*
X0083000Y0107670D03*
X0083330Y0108670D03*
X0083670Y0109670D03*
X0084000Y0110670D03*
X0084000Y0111670D03*
X0084330Y0112670D03*
X0084670Y0113670D03*
X0085000Y0114670D03*
X0085330Y0115670D03*
X0085330Y0116670D03*
X0085670Y0117670D03*
X0086000Y0118670D03*
X0086330Y0119670D03*
X0086670Y0120670D03*
X0087000Y0122670D03*
X0087330Y0123670D03*
X0087670Y0124670D03*
X0075670Y0103670D03*
X0081330Y0101670D03*
X0081000Y0099670D03*
X0080670Y0098670D03*
X0080330Y0097670D03*
X0111330Y0072670D03*
X0089330Y0053670D03*
X0088000Y0053670D03*
X0088670Y0051670D03*
X0088670Y0039670D03*
D16*
X0088665Y0040004D03*
X0088665Y0040337D03*
X0090335Y0046004D03*
X0090665Y0047004D03*
X0086665Y0047337D03*
X0088665Y0052337D03*
X0088665Y0053004D03*
X0088665Y0053337D03*
X0092665Y0054337D03*
X0093665Y0058004D03*
X0094335Y0060337D03*
X0095335Y0064004D03*
X0095665Y0065337D03*
X0096665Y0069004D03*
X0097335Y0071337D03*
X0098335Y0075004D03*
X0098665Y0076004D03*
X0098665Y0076337D03*
X0099665Y0079004D03*
X0101665Y0075337D03*
X0083665Y0081004D03*
X0077665Y0079004D03*
X0080665Y0069004D03*
X0081665Y0065337D03*
X0082335Y0063004D03*
X0083335Y0059337D03*
X0066335Y0073004D03*
X0065335Y0080337D03*
X0065335Y0100004D03*
X0066335Y0107004D03*
X0075665Y0104337D03*
X0078665Y0104004D03*
X0077665Y0101337D03*
X0080335Y0110004D03*
X0082335Y0117337D03*
X0083665Y0122004D03*
X0088665Y0127004D03*
X0088665Y0127337D03*
X0085335Y0128004D03*
X0085665Y0129337D03*
X0090665Y0133004D03*
X0090335Y0134337D03*
X0087335Y0135337D03*
X0088665Y0139337D03*
X0088665Y0140004D03*
X0092335Y0127004D03*
X0092665Y0126004D03*
X0093665Y0122337D03*
X0094335Y0120004D03*
X0095335Y0116337D03*
X0095665Y0115337D03*
X0097335Y0109337D03*
X0097665Y0108004D03*
X0098665Y0104337D03*
X0099335Y0102004D03*
X0101665Y0105004D03*
X0088665Y0097337D03*
D17*
X0098335Y0105670D03*
X0101665Y0104670D03*
X0096665Y0111670D03*
X0096335Y0112670D03*
X0094665Y0118670D03*
X0093335Y0123670D03*
X0088665Y0127670D03*
X0091665Y0129670D03*
X0091335Y0130670D03*
X0086335Y0131670D03*
X0089665Y0136670D03*
X0088665Y0139670D03*
X0084665Y0125670D03*
X0081335Y0113670D03*
X0079665Y0107670D03*
X0075665Y0104670D03*
X0075665Y0075670D03*
X0094665Y0061670D03*
X0093335Y0056670D03*
X0088665Y0052670D03*
X0091665Y0050670D03*
X0087665Y0043670D03*
X0088665Y0040670D03*
X0084335Y0055670D03*
X0096335Y0067670D03*
X0097665Y0072670D03*
X0101665Y0075670D03*
D18*
X0101500Y0075004D03*
X0111170Y0073004D03*
X0112170Y0100004D03*
X0101830Y0105337D03*
X0099830Y0101337D03*
X0075830Y0105004D03*
X0075830Y0075337D03*
X0088830Y0041004D03*
D19*
X0088665Y0041337D03*
X0088665Y0042004D03*
X0066665Y0073337D03*
X0075665Y0074337D03*
X0075665Y0075004D03*
X0101665Y0074337D03*
X0075665Y0105337D03*
X0088665Y0138337D03*
X0088665Y0139004D03*
D20*
X0088665Y0138670D03*
X0075665Y0105670D03*
X0066665Y0106670D03*
X0079335Y0096670D03*
X0097665Y0083670D03*
X0101665Y0074670D03*
X0075665Y0074670D03*
X0101665Y0105670D03*
X0088665Y0041670D03*
D21*
X0088670Y0042337D03*
X0075670Y0074004D03*
X0077000Y0079337D03*
X0066000Y0080004D03*
X0066000Y0100337D03*
X0075670Y0106337D03*
X0077000Y0101004D03*
X0093000Y0083337D03*
X0100330Y0079337D03*
X0111330Y0080004D03*
X0100330Y0101004D03*
D22*
X0110670Y0106670D03*
X0101670Y0073670D03*
X0075670Y0073670D03*
X0088670Y0042670D03*
X0088670Y0137670D03*
D23*
X0087835Y0137337D03*
X0087835Y0137004D03*
X0089835Y0136337D03*
X0089835Y0136004D03*
X0090165Y0135337D03*
X0090165Y0135004D03*
X0090835Y0132337D03*
X0091165Y0131337D03*
X0091165Y0131004D03*
X0091835Y0129337D03*
X0091835Y0129004D03*
X0092165Y0128004D03*
X0092165Y0127337D03*
X0092835Y0125337D03*
X0092835Y0125004D03*
X0093165Y0124337D03*
X0093165Y0124004D03*
X0093835Y0122004D03*
X0093835Y0121337D03*
X0094165Y0120337D03*
X0094835Y0118337D03*
X0094835Y0118004D03*
X0095165Y0117337D03*
X0095165Y0117004D03*
X0095835Y0115004D03*
X0095835Y0114337D03*
X0096165Y0113337D03*
X0096165Y0113004D03*
X0096835Y0111337D03*
X0096835Y0111004D03*
X0097165Y0110004D03*
X0097835Y0107337D03*
X0098165Y0106337D03*
X0098165Y0106004D03*
X0098835Y0104004D03*
X0099165Y0103004D03*
X0099165Y0102337D03*
X0095835Y0102004D03*
X0095165Y0104337D03*
X0093835Y0109337D03*
X0096835Y0098337D03*
X0096835Y0098004D03*
X0093165Y0096004D03*
X0089835Y0095004D03*
X0087165Y0096337D03*
X0088165Y0098004D03*
X0084165Y0096337D03*
X0083835Y0096004D03*
X0080835Y0099337D03*
X0078165Y0102004D03*
X0078165Y0102337D03*
X0078835Y0104337D03*
X0078835Y0105004D03*
X0079165Y0105337D03*
X0079165Y0106004D03*
X0079165Y0106337D03*
X0079835Y0108004D03*
X0079835Y0108337D03*
X0080165Y0109004D03*
X0080165Y0109337D03*
X0080835Y0111337D03*
X0080835Y0112004D03*
X0080835Y0112337D03*
X0081165Y0113004D03*
X0081165Y0113337D03*
X0081835Y0115004D03*
X0081835Y0115337D03*
X0082165Y0116337D03*
X0082165Y0117004D03*
X0082835Y0119004D03*
X0082835Y0119337D03*
X0083165Y0120004D03*
X0083165Y0120337D03*
X0083835Y0122337D03*
X0083835Y0123004D03*
X0084165Y0124004D03*
X0084165Y0124337D03*
X0084835Y0126004D03*
X0084835Y0126337D03*
X0085165Y0127004D03*
X0085165Y0127337D03*
X0085835Y0130004D03*
X0085835Y0130337D03*
X0086165Y0131004D03*
X0086165Y0131337D03*
X0086835Y0133004D03*
X0086835Y0133337D03*
X0087165Y0134337D03*
X0087165Y0135004D03*
X0088835Y0140337D03*
X0111165Y0107337D03*
X0096835Y0082337D03*
X0096835Y0082004D03*
X0095835Y0078337D03*
X0095165Y0076004D03*
X0098165Y0074337D03*
X0098165Y0074004D03*
X0097835Y0073337D03*
X0097835Y0073004D03*
X0097165Y0071004D03*
X0097165Y0070337D03*
X0096835Y0069337D03*
X0096165Y0067337D03*
X0096165Y0067004D03*
X0095835Y0066004D03*
X0095165Y0063337D03*
X0095165Y0063004D03*
X0094835Y0062337D03*
X0094835Y0062004D03*
X0094165Y0060004D03*
X0093835Y0059004D03*
X0093835Y0058337D03*
X0093165Y0056337D03*
X0093165Y0056004D03*
X0092835Y0055337D03*
X0092835Y0055004D03*
X0092165Y0053004D03*
X0092165Y0052337D03*
X0091835Y0051337D03*
X0091835Y0051004D03*
X0091165Y0049337D03*
X0091165Y0049004D03*
X0090835Y0048004D03*
X0090835Y0047337D03*
X0090165Y0045337D03*
X0090165Y0045004D03*
X0089835Y0044337D03*
X0089835Y0044004D03*
X0087835Y0043337D03*
X0087835Y0043004D03*
X0087165Y0045004D03*
X0087165Y0045337D03*
X0086835Y0046337D03*
X0086835Y0047004D03*
X0086165Y0049004D03*
X0086165Y0049337D03*
X0085835Y0050004D03*
X0085835Y0050337D03*
X0085165Y0052337D03*
X0085165Y0053004D03*
X0084835Y0054004D03*
X0084835Y0054337D03*
X0084165Y0056004D03*
X0084165Y0056337D03*
X0083835Y0057004D03*
X0083835Y0057337D03*
X0083835Y0058004D03*
X0083165Y0060004D03*
X0083165Y0060337D03*
X0082835Y0061004D03*
X0082835Y0061337D03*
X0082165Y0063337D03*
X0082165Y0064004D03*
X0081835Y0064337D03*
X0081835Y0065004D03*
X0081165Y0067004D03*
X0081165Y0067337D03*
X0080835Y0068004D03*
X0080835Y0068337D03*
X0080165Y0070337D03*
X0080165Y0071004D03*
X0080165Y0071337D03*
X0079835Y0072004D03*
X0079835Y0072337D03*
X0079165Y0074004D03*
X0079165Y0074337D03*
X0079165Y0075004D03*
X0078835Y0075337D03*
X0078835Y0076004D03*
X0078165Y0078004D03*
X0078165Y0078337D03*
X0075835Y0076337D03*
X0075835Y0076004D03*
X0080835Y0081004D03*
X0083165Y0083004D03*
X0083165Y0084004D03*
X0093165Y0068337D03*
X0098835Y0077004D03*
X0099165Y0078004D03*
X0099165Y0078337D03*
X0082165Y0104337D03*
X0075835Y0104004D03*
D24*
X0078500Y0103337D03*
X0078500Y0103004D03*
X0081500Y0102004D03*
X0080500Y0098337D03*
X0080500Y0098004D03*
X0088500Y0099004D03*
X0096500Y0099337D03*
X0095500Y0103004D03*
X0095500Y0103337D03*
X0098500Y0105004D03*
X0098500Y0105337D03*
X0097500Y0108337D03*
X0097500Y0109004D03*
X0096500Y0112004D03*
X0096500Y0112337D03*
X0095500Y0116004D03*
X0094500Y0119004D03*
X0094500Y0119337D03*
X0093500Y0123004D03*
X0093500Y0123337D03*
X0092500Y0126337D03*
X0091500Y0130004D03*
X0091500Y0130337D03*
X0090500Y0133337D03*
X0090500Y0134004D03*
X0089500Y0137004D03*
X0089500Y0137337D03*
X0087500Y0136337D03*
X0087500Y0136004D03*
X0086500Y0132337D03*
X0086500Y0132004D03*
X0085500Y0129004D03*
X0085500Y0128337D03*
X0084500Y0125337D03*
X0084500Y0125004D03*
X0083500Y0121337D03*
X0083500Y0121004D03*
X0082500Y0118337D03*
X0082500Y0118004D03*
X0081500Y0114337D03*
X0081500Y0114004D03*
X0080500Y0111004D03*
X0080500Y0110337D03*
X0083500Y0109337D03*
X0079500Y0107337D03*
X0079500Y0107004D03*
X0094500Y0107004D03*
X0101500Y0104337D03*
X0088500Y0083337D03*
X0088500Y0081337D03*
X0084500Y0080337D03*
X0083500Y0081337D03*
X0080500Y0082337D03*
X0081500Y0078337D03*
X0078500Y0077337D03*
X0078500Y0077004D03*
X0078500Y0076337D03*
X0079500Y0073337D03*
X0079500Y0073004D03*
X0080500Y0070004D03*
X0080500Y0069337D03*
X0081500Y0066337D03*
X0081500Y0066004D03*
X0082500Y0062337D03*
X0082500Y0062004D03*
X0083500Y0059004D03*
X0083500Y0058337D03*
X0084500Y0055337D03*
X0084500Y0055004D03*
X0085500Y0052004D03*
X0085500Y0051337D03*
X0085500Y0051004D03*
X0086500Y0048337D03*
X0086500Y0048004D03*
X0087500Y0044337D03*
X0087500Y0044004D03*
X0089500Y0043337D03*
X0089500Y0043004D03*
X0090500Y0046337D03*
X0091500Y0050004D03*
X0091500Y0050337D03*
X0092500Y0053337D03*
X0092500Y0054004D03*
X0093500Y0057004D03*
X0093500Y0057337D03*
X0094500Y0061004D03*
X0094500Y0061337D03*
X0095500Y0064337D03*
X0095500Y0065004D03*
X0096500Y0068004D03*
X0096500Y0068337D03*
X0097500Y0072004D03*
X0097500Y0072337D03*
X0098500Y0075337D03*
X0095500Y0077337D03*
X0096500Y0081004D03*
X0101500Y0076337D03*
X0101500Y0076004D03*
X0094500Y0073337D03*
D25*
X0094835Y0074670D03*
X0098165Y0074670D03*
X0098835Y0076670D03*
X0099165Y0077670D03*
X0099165Y0078670D03*
X0096165Y0079670D03*
X0095835Y0078670D03*
X0097165Y0070670D03*
X0096835Y0069670D03*
X0096165Y0066670D03*
X0095835Y0065670D03*
X0095165Y0063670D03*
X0094835Y0062670D03*
X0094165Y0059670D03*
X0093835Y0058670D03*
X0092835Y0054670D03*
X0092165Y0052670D03*
X0091835Y0051670D03*
X0091165Y0048670D03*
X0090835Y0047670D03*
X0090165Y0045670D03*
X0089835Y0043670D03*
X0087165Y0045670D03*
X0086835Y0046670D03*
X0086165Y0048670D03*
X0085835Y0050670D03*
X0085165Y0052670D03*
X0084835Y0053670D03*
X0084165Y0056670D03*
X0083835Y0057670D03*
X0083165Y0059670D03*
X0082835Y0060670D03*
X0082835Y0061670D03*
X0082165Y0063670D03*
X0081835Y0064670D03*
X0081165Y0066670D03*
X0081165Y0067670D03*
X0080835Y0068670D03*
X0080165Y0070670D03*
X0079835Y0071670D03*
X0079165Y0074670D03*
X0078835Y0075670D03*
X0078165Y0077670D03*
X0078165Y0078670D03*
X0081165Y0079670D03*
X0081165Y0100670D03*
X0078165Y0101670D03*
X0078165Y0102670D03*
X0078835Y0104670D03*
X0079165Y0105670D03*
X0079835Y0108670D03*
X0080165Y0109670D03*
X0080835Y0111670D03*
X0081165Y0112670D03*
X0081835Y0115670D03*
X0082165Y0116670D03*
X0082835Y0118670D03*
X0083165Y0120670D03*
X0083835Y0122670D03*
X0084165Y0123670D03*
X0084835Y0126670D03*
X0085165Y0127670D03*
X0085835Y0129670D03*
X0086165Y0130670D03*
X0086835Y0133670D03*
X0087165Y0134670D03*
X0089835Y0135670D03*
X0090165Y0134670D03*
X0090835Y0132670D03*
X0091165Y0131670D03*
X0091835Y0128670D03*
X0092165Y0127670D03*
X0092835Y0125670D03*
X0093835Y0121670D03*
X0094165Y0120670D03*
X0095165Y0116670D03*
X0095835Y0114670D03*
X0096165Y0113670D03*
X0096835Y0110670D03*
X0097165Y0109670D03*
X0097835Y0107670D03*
X0094835Y0105670D03*
X0098835Y0103670D03*
X0099165Y0102670D03*
X0096165Y0100670D03*
X0087835Y0136670D03*
D26*
X0087500Y0135670D03*
X0086500Y0132670D03*
X0085500Y0128670D03*
X0084500Y0124670D03*
X0083500Y0121670D03*
X0082500Y0117670D03*
X0081500Y0114670D03*
X0080500Y0110670D03*
X0079500Y0106670D03*
X0078500Y0103670D03*
X0082500Y0105670D03*
X0093500Y0110670D03*
X0097500Y0108670D03*
X0098500Y0104670D03*
X0099500Y0101670D03*
X0095500Y0115670D03*
X0094500Y0119670D03*
X0093500Y0122670D03*
X0092500Y0126670D03*
X0090500Y0133670D03*
X0078500Y0076670D03*
X0079500Y0073670D03*
X0079500Y0072670D03*
X0080500Y0069670D03*
X0081500Y0065670D03*
X0082500Y0062670D03*
X0083500Y0058670D03*
X0084500Y0054670D03*
X0085500Y0051670D03*
X0086500Y0047670D03*
X0087500Y0044670D03*
X0090500Y0046670D03*
X0091500Y0049670D03*
X0092500Y0053670D03*
X0093500Y0057670D03*
X0094500Y0060670D03*
X0095500Y0064670D03*
X0096500Y0068670D03*
X0097500Y0071670D03*
X0098500Y0075670D03*
X0093500Y0069670D03*
X0082500Y0074670D03*
D27*
X0098000Y0073670D03*
X0093000Y0055670D03*
X0086000Y0049670D03*
X0090000Y0044670D03*
X0098000Y0106670D03*
X0095000Y0117670D03*
X0093000Y0124670D03*
X0083000Y0119670D03*
D28*
X0082000Y0116004D03*
X0084000Y0123337D03*
X0092000Y0128337D03*
X0091000Y0132004D03*
X0087000Y0134004D03*
X0094000Y0121004D03*
X0096000Y0114004D03*
X0097000Y0110337D03*
X0098000Y0107004D03*
X0099000Y0103337D03*
X0112000Y0080337D03*
X0099000Y0077337D03*
X0097000Y0070004D03*
X0096000Y0066337D03*
X0094000Y0059337D03*
X0092000Y0052004D03*
X0091000Y0048337D03*
X0087000Y0046004D03*
X0085000Y0053337D03*
D29*
X0087165Y0057004D03*
X0086835Y0058337D03*
X0090165Y0057004D03*
X0088835Y0051004D03*
X0091835Y0063337D03*
X0093835Y0082004D03*
X0093835Y0082337D03*
X0094165Y0085337D03*
X0094165Y0089337D03*
X0093835Y0093004D03*
X0093835Y0093337D03*
X0093835Y0094004D03*
X0089835Y0095337D03*
X0087165Y0095337D03*
X0083165Y0093337D03*
X0082835Y0089004D03*
X0082835Y0085004D03*
X0083165Y0082337D03*
X0083165Y0082004D03*
X0066165Y0107337D03*
X0084835Y0114337D03*
X0085835Y0118004D03*
X0086165Y0119337D03*
X0087165Y0123004D03*
X0089835Y0124337D03*
X0091165Y0119337D03*
D30*
X0090500Y0122004D03*
X0087500Y0124337D03*
X0088500Y0101004D03*
X0088500Y0100337D03*
X0088500Y0100004D03*
X0088500Y0099337D03*
X0093500Y0100004D03*
X0093500Y0100337D03*
X0093500Y0095337D03*
X0093500Y0095004D03*
X0088500Y0091337D03*
X0088500Y0091004D03*
X0088500Y0090337D03*
X0088500Y0090004D03*
X0088500Y0089337D03*
X0088500Y0089004D03*
X0088500Y0087004D03*
X0088500Y0086337D03*
X0088500Y0086004D03*
X0088500Y0085337D03*
X0088500Y0085004D03*
X0088500Y0082337D03*
X0088500Y0082004D03*
X0088500Y0079337D03*
X0088500Y0079004D03*
X0088500Y0078337D03*
X0088500Y0078004D03*
X0088500Y0077337D03*
X0088500Y0077004D03*
X0088500Y0076337D03*
X0088500Y0076004D03*
X0088500Y0075337D03*
X0085500Y0063337D03*
X0091500Y0062004D03*
X0090500Y0058337D03*
X0087500Y0056004D03*
X0089500Y0054337D03*
X0083500Y0095337D03*
X0083500Y0099337D03*
X0083500Y0100004D03*
X0083500Y0100337D03*
D31*
X0083500Y0099670D03*
X0088500Y0099670D03*
X0088500Y0100670D03*
X0088500Y0097670D03*
X0088500Y0093670D03*
X0088500Y0091670D03*
X0088500Y0090670D03*
X0088500Y0089670D03*
X0088500Y0086670D03*
X0088500Y0085670D03*
X0088500Y0084670D03*
X0088500Y0082670D03*
X0088500Y0081670D03*
X0088500Y0079670D03*
X0088500Y0078670D03*
X0088500Y0077670D03*
X0088500Y0076670D03*
X0088500Y0075670D03*
X0086500Y0059670D03*
X0089500Y0054670D03*
X0093500Y0099670D03*
X0112500Y0099670D03*
X0089500Y0125670D03*
D32*
X0076500Y0065670D03*
D33*
X0075500Y0072670D03*
X0076500Y0079670D03*
X0066500Y0079670D03*
X0076500Y0100670D03*
X0075500Y0107670D03*
X0101830Y0072670D03*
X0100500Y0065670D03*
X0110830Y0079670D03*
D34*
X0110335Y0079337D03*
X0102335Y0085004D03*
X0110335Y0101004D03*
X0075335Y0110004D03*
X0075335Y0110337D03*
X0075335Y0070337D03*
X0075335Y0070004D03*
X0076335Y0066004D03*
D35*
X0101000Y0066004D03*
X0102000Y0070004D03*
X0102000Y0070337D03*
X0104000Y0085337D03*
X0067000Y0101004D03*
D36*
X0075165Y0111337D03*
X0067835Y0079004D03*
X0068165Y0075004D03*
X0075165Y0069004D03*
X0075165Y0068337D03*
X0075835Y0066337D03*
X0102165Y0069004D03*
D37*
X0101500Y0066337D03*
X0109500Y0105337D03*
D38*
X0075500Y0066670D03*
D39*
X0075165Y0067670D03*
X0101835Y0066670D03*
X0102165Y0067670D03*
D40*
X0075000Y0067337D03*
X0075000Y0067004D03*
X0075000Y0113004D03*
D41*
X0088665Y0093004D03*
X0102335Y0113004D03*
X0102335Y0067337D03*
X0102335Y0067004D03*
D42*
X0109165Y0075004D03*
X0109165Y0105004D03*
X0102165Y0113337D03*
X0075165Y0113337D03*
X0075165Y0112337D03*
X0075165Y0068004D03*
D43*
X0102330Y0068004D03*
X0102330Y0068337D03*
X0109670Y0079004D03*
X0109670Y0101337D03*
X0102330Y0112004D03*
X0102330Y0112337D03*
X0075000Y0112004D03*
X0068330Y0105004D03*
X0067670Y0101337D03*
D44*
X0075165Y0111670D03*
X0101835Y0113670D03*
X0102165Y0111670D03*
X0102165Y0068670D03*
X0075165Y0068670D03*
D45*
X0075335Y0069337D03*
X0075335Y0111004D03*
X0102335Y0111004D03*
X0102335Y0111337D03*
D46*
X0102170Y0110337D03*
X0101170Y0114004D03*
X0076170Y0114004D03*
X0067830Y0105337D03*
X0088830Y0081004D03*
X0102170Y0069337D03*
D47*
X0102170Y0069670D03*
X0109500Y0074670D03*
X0109830Y0105670D03*
X0102170Y0110670D03*
X0075170Y0110670D03*
X0067830Y0074670D03*
X0075170Y0069670D03*
D48*
X0075330Y0070670D03*
X0073000Y0080670D03*
X0069330Y0081670D03*
X0065670Y0082670D03*
X0062000Y0083670D03*
X0058330Y0084670D03*
X0054670Y0085670D03*
X0051000Y0086670D03*
X0047330Y0087670D03*
X0047670Y0092670D03*
X0051330Y0093670D03*
X0055000Y0094670D03*
X0058670Y0095670D03*
X0062330Y0096670D03*
X0066000Y0097670D03*
X0069670Y0098670D03*
X0073330Y0099670D03*
X0066670Y0093670D03*
X0062000Y0092670D03*
X0044000Y0091670D03*
X0040330Y0090670D03*
X0102000Y0070670D03*
X0104000Y0080670D03*
X0107670Y0081670D03*
X0111330Y0082670D03*
X0115000Y0083670D03*
X0118670Y0084670D03*
X0122330Y0085670D03*
X0126000Y0086670D03*
X0129670Y0087670D03*
X0133330Y0088670D03*
X0133000Y0091670D03*
X0129330Y0092670D03*
X0125670Y0093670D03*
X0122000Y0094670D03*
X0115330Y0087670D03*
X0110330Y0093670D03*
X0111330Y0097670D03*
X0107670Y0098670D03*
X0105670Y0094670D03*
X0137000Y0089670D03*
D49*
X0137670Y0090337D03*
X0135330Y0091004D03*
X0134000Y0091337D03*
X0131670Y0092004D03*
X0128000Y0093004D03*
X0127000Y0093337D03*
X0123330Y0094337D03*
X0121000Y0095004D03*
X0119670Y0095337D03*
X0117330Y0096004D03*
X0116000Y0096337D03*
X0113670Y0097004D03*
X0112000Y0093337D03*
X0108670Y0094004D03*
X0107330Y0094337D03*
X0105330Y0099337D03*
X0099670Y0096004D03*
X0099330Y0084337D03*
X0103000Y0080337D03*
X0105330Y0081004D03*
X0106670Y0081337D03*
X0109000Y0082004D03*
X0110330Y0082337D03*
X0112670Y0083004D03*
X0114000Y0083337D03*
X0116330Y0084004D03*
X0117670Y0084337D03*
X0120000Y0085004D03*
X0121330Y0085337D03*
X0123670Y0086004D03*
X0127330Y0087004D03*
X0131000Y0088004D03*
X0134670Y0089004D03*
X0117000Y0088004D03*
X0113670Y0087337D03*
X0112000Y0087004D03*
X0102000Y0071004D03*
X0077670Y0096004D03*
X0072000Y0099337D03*
X0068330Y0098337D03*
X0064670Y0097337D03*
X0061000Y0096337D03*
X0057330Y0095337D03*
X0052670Y0094004D03*
X0049000Y0093004D03*
X0045330Y0092004D03*
X0044670Y0088337D03*
X0046000Y0088004D03*
X0048330Y0087337D03*
X0049670Y0087004D03*
X0053330Y0086004D03*
X0056000Y0085337D03*
X0057000Y0085004D03*
X0059670Y0084337D03*
X0060670Y0084004D03*
X0063330Y0083337D03*
X0067000Y0082337D03*
X0068330Y0082004D03*
X0070670Y0081337D03*
X0072000Y0081004D03*
X0074330Y0080337D03*
X0075330Y0071004D03*
X0070000Y0094337D03*
X0068330Y0094004D03*
X0063670Y0093004D03*
X0075330Y0109004D03*
X0075330Y0109337D03*
X0102000Y0109337D03*
X0110000Y0106004D03*
X0042330Y0089004D03*
X0041000Y0089337D03*
X0041670Y0091004D03*
D50*
X0060500Y0092337D03*
X0075500Y0100337D03*
X0075500Y0080004D03*
X0075500Y0071337D03*
X0067500Y0074337D03*
X0100500Y0114337D03*
X0113500Y0093004D03*
X0116500Y0092337D03*
X0118500Y0088337D03*
X0123500Y0089337D03*
D51*
X0121835Y0089004D03*
X0118165Y0092004D03*
X0101835Y0100337D03*
X0102165Y0109004D03*
X0101835Y0080004D03*
X0101835Y0071337D03*
X0110165Y0074004D03*
X0138165Y0090004D03*
X0068165Y0086337D03*
X0064835Y0087004D03*
X0063165Y0087337D03*
X0059835Y0088004D03*
X0058835Y0092004D03*
X0065165Y0093337D03*
X0038835Y0090004D03*
D52*
X0052500Y0090670D03*
X0061500Y0087670D03*
X0066500Y0086670D03*
X0075500Y0071670D03*
X0075500Y0108670D03*
D53*
X0102000Y0108670D03*
X0101000Y0100670D03*
X0111000Y0100670D03*
X0125000Y0089670D03*
X0101000Y0079670D03*
X0102000Y0071670D03*
D54*
X0121335Y0091337D03*
X0075335Y0108337D03*
X0067335Y0106004D03*
X0055665Y0091337D03*
X0053335Y0089337D03*
X0058335Y0088337D03*
X0075335Y0072004D03*
D55*
X0055000Y0089004D03*
X0054000Y0091004D03*
X0051000Y0090337D03*
X0102000Y0108337D03*
X0123000Y0091004D03*
X0126000Y0090337D03*
X0102000Y0072004D03*
D56*
X0101830Y0072337D03*
X0088830Y0084004D03*
X0084500Y0083337D03*
X0075500Y0072337D03*
X0067170Y0074004D03*
X0050500Y0090004D03*
X0075500Y0107337D03*
X0075500Y0108004D03*
X0101830Y0108004D03*
X0110500Y0106337D03*
X0126500Y0090004D03*
D57*
X0066000Y0072670D03*
D58*
X0075500Y0073004D03*
X0075500Y0073337D03*
X0075500Y0107004D03*
X0111500Y0100337D03*
D59*
X0101835Y0107004D03*
X0101835Y0073337D03*
X0101835Y0073004D03*
D60*
X0101835Y0074004D03*
X0110835Y0073337D03*
X0101835Y0106004D03*
X0101835Y0106337D03*
X0088835Y0138004D03*
D61*
X0101835Y0106670D03*
X0066835Y0073670D03*
D62*
X0110335Y0073670D03*
D63*
X0109835Y0074337D03*
X0107165Y0086004D03*
X0108835Y0086337D03*
X0104165Y0095004D03*
X0108835Y0098337D03*
X0110165Y0098004D03*
X0102835Y0100004D03*
X0102165Y0110004D03*
X0124835Y0086337D03*
X0132165Y0088337D03*
X0135835Y0089337D03*
X0077835Y0084337D03*
X0074835Y0085004D03*
X0073165Y0085337D03*
X0069835Y0086004D03*
X0067165Y0079337D03*
X0052165Y0086337D03*
X0050165Y0093337D03*
X0053835Y0094337D03*
X0056165Y0095004D03*
X0059835Y0096004D03*
X0067165Y0098004D03*
X0070835Y0099004D03*
X0073165Y0095004D03*
X0074835Y0095337D03*
X0042835Y0091337D03*
X0039165Y0090337D03*
D64*
X0068500Y0075337D03*
D65*
X0088500Y0094337D03*
X0088500Y0097004D03*
X0108830Y0075337D03*
D66*
X0088665Y0092670D03*
X0108665Y0104670D03*
X0068665Y0075670D03*
D67*
X0108500Y0075670D03*
D68*
X0069165Y0076004D03*
X0068835Y0102004D03*
X0069165Y0104004D03*
D69*
X0108000Y0076004D03*
D70*
X0088500Y0098337D03*
X0108170Y0104004D03*
X0069500Y0076337D03*
D71*
X0107835Y0076337D03*
X0107835Y0078004D03*
D72*
X0107335Y0077670D03*
X0107335Y0102670D03*
X0070335Y0076670D03*
D73*
X0088500Y0083670D03*
X0107170Y0076670D03*
X0107170Y0103670D03*
D74*
X0107335Y0103004D03*
X0070335Y0103004D03*
X0070335Y0103337D03*
X0070335Y0077337D03*
X0070335Y0077004D03*
D75*
X0107170Y0077004D03*
X0107170Y0077337D03*
X0107170Y0103337D03*
D76*
X0070165Y0077670D03*
D77*
X0069665Y0078004D03*
D78*
X0069000Y0078337D03*
D79*
X0108500Y0078337D03*
X0108500Y0102004D03*
X0108500Y0104337D03*
D80*
X0102335Y0112670D03*
X0068665Y0104670D03*
X0068335Y0078670D03*
D81*
X0088500Y0094670D03*
X0109170Y0101670D03*
X0109170Y0078670D03*
X0068170Y0101670D03*
D82*
X0088500Y0080670D03*
D83*
X0102500Y0095337D03*
X0106500Y0099004D03*
X0112500Y0097337D03*
X0124500Y0094004D03*
X0130500Y0092337D03*
X0128500Y0087337D03*
X0074500Y0100004D03*
X0063500Y0097004D03*
X0064500Y0083004D03*
X0046500Y0092337D03*
D84*
X0079500Y0083670D03*
D85*
X0078665Y0084004D03*
X0078665Y0096337D03*
X0076335Y0114337D03*
X0098665Y0096337D03*
X0098665Y0084004D03*
D86*
X0105500Y0085670D03*
X0110500Y0086670D03*
X0118500Y0095670D03*
X0136500Y0090670D03*
X0076500Y0084670D03*
X0071500Y0085670D03*
X0071500Y0094670D03*
X0067500Y0105670D03*
X0043500Y0088670D03*
D87*
X0039835Y0089670D03*
X0076165Y0095670D03*
X0075165Y0109670D03*
X0102165Y0109670D03*
X0104165Y0099670D03*
X0114835Y0096670D03*
X0100835Y0084670D03*
D88*
X0124335Y0090670D03*
X0066335Y0100670D03*
X0056665Y0088670D03*
X0051665Y0089670D03*
D89*
X0057165Y0091670D03*
X0115165Y0092670D03*
X0119835Y0091670D03*
X0120165Y0088670D03*
D90*
X0101000Y0095670D03*
D91*
X0088500Y0096670D03*
D92*
X0097835Y0096670D03*
D93*
X0088335Y0098670D03*
D94*
X0069500Y0102337D03*
D95*
X0108000Y0102337D03*
D96*
X0070000Y0102670D03*
D97*
X0069500Y0103670D03*
D98*
X0068835Y0104337D03*
D99*
X0075500Y0106004D03*
D100*
X0067000Y0106337D03*
X0102000Y0107337D03*
D101*
X0075500Y0106670D03*
D102*
X0111000Y0107004D03*
D103*
X0102000Y0107670D03*
D104*
X0075000Y0112670D03*
D105*
X0075670Y0113670D03*
D106*
X0003303Y0003683D02*
X0003050Y0002987D01*
X0003581Y0003208D02*
X0003581Y0003620D01*
X0003898Y0003620D02*
X0003898Y0003208D01*
X0003897Y0003208D02*
X0003895Y0003184D01*
X0003890Y0003161D01*
X0003881Y0003139D01*
X0003870Y0003119D01*
X0003855Y0003101D01*
X0003838Y0003084D01*
X0003818Y0003071D01*
X0003797Y0003061D01*
X0003774Y0003054D01*
X0003751Y0003050D01*
X0003727Y0003050D01*
X0003704Y0003054D01*
X0003681Y0003061D01*
X0003660Y0003071D01*
X0003640Y0003084D01*
X0003623Y0003101D01*
X0003608Y0003119D01*
X0003597Y0003139D01*
X0003588Y0003161D01*
X0003583Y0003184D01*
X0003581Y0003208D01*
X0004243Y0003272D02*
X0004402Y0003208D01*
X0004401Y0003208D02*
X0004417Y0003200D01*
X0004430Y0003189D01*
X0004441Y0003175D01*
X0004448Y0003159D01*
X0004452Y0003142D01*
X0004453Y0003125D01*
X0004449Y0003107D01*
X0004442Y0003091D01*
X0004432Y0003077D01*
X0004419Y0003066D01*
X0004404Y0003057D01*
X0004387Y0003052D01*
X0004370Y0003050D01*
X0004418Y0003398D02*
X0004384Y0003412D01*
X0004348Y0003421D01*
X0004312Y0003428D01*
X0004275Y0003430D01*
X0004258Y0003428D01*
X0004241Y0003423D01*
X0004226Y0003414D01*
X0004213Y0003403D01*
X0004203Y0003389D01*
X0004196Y0003373D01*
X0004192Y0003355D01*
X0004193Y0003338D01*
X0004197Y0003321D01*
X0004204Y0003305D01*
X0004215Y0003291D01*
X0004228Y0003280D01*
X0004244Y0003272D01*
X0004196Y0003082D02*
X0004239Y0003068D01*
X0004282Y0003059D01*
X0004326Y0003053D01*
X0004370Y0003050D01*
X0004718Y0003145D02*
X0004718Y0003303D01*
X0004718Y0003240D02*
X0004972Y0003240D01*
X0004972Y0003303D01*
X0004970Y0003324D01*
X0004965Y0003344D01*
X0004957Y0003363D01*
X0004945Y0003381D01*
X0004931Y0003396D01*
X0004914Y0003409D01*
X0004896Y0003419D01*
X0004876Y0003426D01*
X0004855Y0003430D01*
X0004835Y0003430D01*
X0004814Y0003426D01*
X0004794Y0003419D01*
X0004776Y0003409D01*
X0004759Y0003396D01*
X0004745Y0003381D01*
X0004733Y0003363D01*
X0004725Y0003344D01*
X0004720Y0003324D01*
X0004718Y0003303D01*
X0004718Y0003145D02*
X0004720Y0003126D01*
X0004725Y0003109D01*
X0004734Y0003092D01*
X0004746Y0003078D01*
X0004760Y0003066D01*
X0004777Y0003057D01*
X0004794Y0003052D01*
X0004813Y0003050D01*
X0004972Y0003050D01*
X0005266Y0003050D02*
X0005266Y0003430D01*
X0005456Y0003430D01*
X0005456Y0003367D01*
X0005710Y0003272D02*
X0005869Y0003208D01*
X0005868Y0003208D02*
X0005884Y0003200D01*
X0005897Y0003189D01*
X0005908Y0003175D01*
X0005915Y0003159D01*
X0005919Y0003142D01*
X0005920Y0003125D01*
X0005916Y0003107D01*
X0005909Y0003091D01*
X0005899Y0003077D01*
X0005886Y0003066D01*
X0005871Y0003057D01*
X0005854Y0003052D01*
X0005837Y0003050D01*
X0005885Y0003398D02*
X0005851Y0003412D01*
X0005815Y0003421D01*
X0005779Y0003428D01*
X0005742Y0003430D01*
X0005725Y0003428D01*
X0005708Y0003423D01*
X0005693Y0003414D01*
X0005680Y0003403D01*
X0005670Y0003389D01*
X0005663Y0003373D01*
X0005659Y0003355D01*
X0005660Y0003338D01*
X0005664Y0003321D01*
X0005671Y0003305D01*
X0005682Y0003291D01*
X0005695Y0003280D01*
X0005711Y0003272D01*
X0005663Y0003082D02*
X0005706Y0003068D01*
X0005749Y0003059D01*
X0005793Y0003053D01*
X0005837Y0003050D01*
X0006166Y0002987D02*
X0006419Y0003683D01*
X0006705Y0003620D02*
X0006895Y0003303D01*
X0007085Y0003620D01*
X0007085Y0003050D01*
X0007368Y0003050D02*
X0007558Y0003620D01*
X0007748Y0003050D01*
X0007701Y0003192D02*
X0007416Y0003192D01*
X0007963Y0003620D02*
X0008280Y0003620D01*
X0008121Y0003620D02*
X0008121Y0003050D01*
X0008546Y0003050D02*
X0008546Y0003620D01*
X0008546Y0003367D02*
X0008862Y0003367D01*
X0008862Y0003620D02*
X0008862Y0003050D01*
X0009195Y0003050D02*
X0009195Y0003620D01*
X0009353Y0003620D01*
X0009377Y0003618D01*
X0009400Y0003613D01*
X0009422Y0003604D01*
X0009442Y0003593D01*
X0009460Y0003578D01*
X0009477Y0003561D01*
X0009490Y0003541D01*
X0009500Y0003520D01*
X0009507Y0003497D01*
X0009511Y0003474D01*
X0009511Y0003450D01*
X0009507Y0003427D01*
X0009500Y0003404D01*
X0009490Y0003383D01*
X0009477Y0003363D01*
X0009460Y0003346D01*
X0009442Y0003331D01*
X0009422Y0003320D01*
X0009400Y0003311D01*
X0009377Y0003306D01*
X0009353Y0003304D01*
X0009353Y0003303D02*
X0009195Y0003303D01*
X0009385Y0003303D02*
X0009511Y0003050D01*
X0009760Y0003050D02*
X0009950Y0003620D01*
X0010140Y0003050D01*
X0010093Y0003192D02*
X0009808Y0003192D01*
X0010363Y0003050D02*
X0010743Y0003620D01*
X0010363Y0003620D02*
X0010743Y0003050D01*
X0010969Y0002987D02*
X0011223Y0003683D01*
X0011501Y0003620D02*
X0011659Y0003620D01*
X0011681Y0003618D01*
X0011704Y0003614D01*
X0011725Y0003606D01*
X0011744Y0003595D01*
X0011762Y0003581D01*
X0011778Y0003565D01*
X0011792Y0003547D01*
X0011803Y0003528D01*
X0011811Y0003507D01*
X0011815Y0003484D01*
X0011817Y0003462D01*
X0011817Y0003208D01*
X0011815Y0003183D01*
X0011809Y0003159D01*
X0011800Y0003136D01*
X0011787Y0003115D01*
X0011771Y0003096D01*
X0011752Y0003080D01*
X0011731Y0003067D01*
X0011708Y0003058D01*
X0011684Y0003052D01*
X0011659Y0003050D01*
X0011501Y0003050D01*
X0011501Y0003620D01*
X0012115Y0003303D02*
X0012115Y0003177D01*
X0012117Y0003156D01*
X0012122Y0003136D01*
X0012130Y0003117D01*
X0012142Y0003099D01*
X0012156Y0003084D01*
X0012173Y0003071D01*
X0012191Y0003061D01*
X0012211Y0003054D01*
X0012232Y0003050D01*
X0012252Y0003050D01*
X0012273Y0003054D01*
X0012293Y0003061D01*
X0012311Y0003071D01*
X0012328Y0003084D01*
X0012342Y0003099D01*
X0012354Y0003117D01*
X0012362Y0003136D01*
X0012367Y0003156D01*
X0012369Y0003177D01*
X0012368Y0003177D02*
X0012368Y0003303D01*
X0012369Y0003303D02*
X0012367Y0003324D01*
X0012362Y0003344D01*
X0012354Y0003363D01*
X0012342Y0003381D01*
X0012328Y0003396D01*
X0012311Y0003409D01*
X0012293Y0003419D01*
X0012273Y0003426D01*
X0012252Y0003430D01*
X0012232Y0003430D01*
X0012211Y0003426D01*
X0012191Y0003419D01*
X0012173Y0003409D01*
X0012156Y0003396D01*
X0012142Y0003381D01*
X0012130Y0003363D01*
X0012122Y0003344D01*
X0012117Y0003324D01*
X0012115Y0003303D01*
X0012639Y0003335D02*
X0012639Y0003145D01*
X0012641Y0003126D01*
X0012646Y0003109D01*
X0012655Y0003092D01*
X0012667Y0003078D01*
X0012681Y0003066D01*
X0012698Y0003057D01*
X0012715Y0003052D01*
X0012734Y0003050D01*
X0012860Y0003050D01*
X0013120Y0003145D02*
X0013120Y0003430D01*
X0013373Y0003430D02*
X0013373Y0003050D01*
X0013215Y0003050D01*
X0013196Y0003052D01*
X0013179Y0003057D01*
X0013162Y0003066D01*
X0013148Y0003078D01*
X0013136Y0003092D01*
X0013127Y0003109D01*
X0013122Y0003126D01*
X0013120Y0003145D01*
X0012860Y0003430D02*
X0012734Y0003430D01*
X0012715Y0003428D01*
X0012698Y0003423D01*
X0012681Y0003414D01*
X0012667Y0003402D01*
X0012655Y0003388D01*
X0012646Y0003371D01*
X0012641Y0003354D01*
X0012639Y0003335D01*
X0013700Y0003430D02*
X0013985Y0003430D01*
X0014004Y0003428D01*
X0014021Y0003423D01*
X0014038Y0003414D01*
X0014052Y0003402D01*
X0014064Y0003388D01*
X0014073Y0003371D01*
X0014078Y0003354D01*
X0014080Y0003335D01*
X0014080Y0003050D01*
X0013890Y0003050D02*
X0013890Y0003430D01*
X0013700Y0003430D02*
X0013700Y0003050D01*
X0014386Y0003145D02*
X0014386Y0003303D01*
X0014386Y0003240D02*
X0014640Y0003240D01*
X0014640Y0003303D01*
X0014638Y0003324D01*
X0014633Y0003344D01*
X0014625Y0003363D01*
X0014613Y0003381D01*
X0014599Y0003396D01*
X0014582Y0003409D01*
X0014564Y0003419D01*
X0014544Y0003426D01*
X0014523Y0003430D01*
X0014503Y0003430D01*
X0014482Y0003426D01*
X0014462Y0003419D01*
X0014444Y0003409D01*
X0014427Y0003396D01*
X0014413Y0003381D01*
X0014401Y0003363D01*
X0014393Y0003344D01*
X0014388Y0003324D01*
X0014386Y0003303D01*
X0014386Y0003145D02*
X0014388Y0003126D01*
X0014393Y0003109D01*
X0014402Y0003092D01*
X0014414Y0003078D01*
X0014428Y0003066D01*
X0014445Y0003057D01*
X0014462Y0003052D01*
X0014481Y0003050D01*
X0014640Y0003050D01*
X0014929Y0003050D02*
X0014929Y0003430D01*
X0015087Y0003430D01*
X0015106Y0003428D01*
X0015123Y0003423D01*
X0015140Y0003414D01*
X0015154Y0003402D01*
X0015166Y0003388D01*
X0015175Y0003371D01*
X0015180Y0003354D01*
X0015182Y0003335D01*
X0015182Y0003050D01*
X0015479Y0003145D02*
X0015479Y0003620D01*
X0015416Y0003430D02*
X0015606Y0003430D01*
X0015479Y0003145D02*
X0015481Y0003126D01*
X0015486Y0003109D01*
X0015495Y0003092D01*
X0015507Y0003078D01*
X0015521Y0003066D01*
X0015538Y0003057D01*
X0015555Y0003052D01*
X0015574Y0003050D01*
X0015606Y0003050D01*
X0015933Y0003430D02*
X0015970Y0003428D01*
X0016006Y0003421D01*
X0016042Y0003412D01*
X0016076Y0003398D01*
X0015933Y0003430D02*
X0015916Y0003428D01*
X0015899Y0003423D01*
X0015884Y0003414D01*
X0015871Y0003403D01*
X0015861Y0003389D01*
X0015854Y0003373D01*
X0015850Y0003355D01*
X0015851Y0003338D01*
X0015855Y0003321D01*
X0015862Y0003305D01*
X0015873Y0003291D01*
X0015886Y0003280D01*
X0015902Y0003272D01*
X0015901Y0003272D02*
X0016060Y0003208D01*
X0016059Y0003208D02*
X0016075Y0003200D01*
X0016088Y0003189D01*
X0016099Y0003175D01*
X0016106Y0003159D01*
X0016110Y0003142D01*
X0016111Y0003125D01*
X0016107Y0003107D01*
X0016100Y0003091D01*
X0016090Y0003077D01*
X0016077Y0003066D01*
X0016062Y0003057D01*
X0016045Y0003052D01*
X0016028Y0003050D01*
X0016356Y0002987D02*
X0016610Y0003683D01*
X0016859Y0003303D02*
X0016859Y0003145D01*
X0016861Y0003126D01*
X0016866Y0003109D01*
X0016875Y0003092D01*
X0016887Y0003078D01*
X0016901Y0003066D01*
X0016918Y0003057D01*
X0016935Y0003052D01*
X0016954Y0003050D01*
X0017112Y0003050D01*
X0017112Y0003240D02*
X0016859Y0003240D01*
X0016858Y0003303D02*
X0016860Y0003324D01*
X0016865Y0003344D01*
X0016873Y0003363D01*
X0016885Y0003381D01*
X0016899Y0003396D01*
X0016916Y0003409D01*
X0016934Y0003419D01*
X0016954Y0003426D01*
X0016975Y0003430D01*
X0016995Y0003430D01*
X0017016Y0003426D01*
X0017036Y0003419D01*
X0017054Y0003409D01*
X0017071Y0003396D01*
X0017085Y0003381D01*
X0017097Y0003363D01*
X0017105Y0003344D01*
X0017110Y0003324D01*
X0017112Y0003303D01*
X0017112Y0003240D01*
X0017408Y0003430D02*
X0017535Y0003430D01*
X0017554Y0003428D01*
X0017571Y0003423D01*
X0017588Y0003414D01*
X0017602Y0003402D01*
X0017614Y0003388D01*
X0017623Y0003371D01*
X0017628Y0003354D01*
X0017630Y0003335D01*
X0017630Y0003050D01*
X0017488Y0003050D01*
X0017469Y0003052D01*
X0017450Y0003057D01*
X0017433Y0003065D01*
X0017417Y0003076D01*
X0017403Y0003090D01*
X0017392Y0003106D01*
X0017384Y0003123D01*
X0017379Y0003142D01*
X0017377Y0003161D01*
X0017379Y0003180D01*
X0017384Y0003199D01*
X0017392Y0003217D01*
X0017403Y0003232D01*
X0017417Y0003246D01*
X0017433Y0003257D01*
X0017450Y0003265D01*
X0017469Y0003270D01*
X0017488Y0003272D01*
X0017630Y0003272D01*
X0017920Y0003335D02*
X0017920Y0003145D01*
X0017922Y0003126D01*
X0017927Y0003109D01*
X0017936Y0003092D01*
X0017948Y0003078D01*
X0017962Y0003066D01*
X0017979Y0003057D01*
X0017996Y0003052D01*
X0018015Y0003050D01*
X0018173Y0003050D01*
X0018173Y0002955D02*
X0018173Y0003430D01*
X0018015Y0003430D01*
X0017996Y0003428D01*
X0017979Y0003423D01*
X0017962Y0003414D01*
X0017948Y0003402D01*
X0017936Y0003388D01*
X0017927Y0003371D01*
X0017922Y0003354D01*
X0017920Y0003335D01*
X0018173Y0002955D02*
X0018171Y0002936D01*
X0018166Y0002919D01*
X0018157Y0002902D01*
X0018145Y0002888D01*
X0018131Y0002876D01*
X0018114Y0002867D01*
X0018097Y0002862D01*
X0018078Y0002860D01*
X0017951Y0002860D01*
X0018469Y0003145D02*
X0018469Y0003620D01*
X0018788Y0003303D02*
X0018788Y0003145D01*
X0018788Y0003240D02*
X0019042Y0003240D01*
X0019042Y0003303D01*
X0019040Y0003324D01*
X0019035Y0003344D01*
X0019027Y0003363D01*
X0019015Y0003381D01*
X0019001Y0003396D01*
X0018984Y0003409D01*
X0018966Y0003419D01*
X0018946Y0003426D01*
X0018925Y0003430D01*
X0018905Y0003430D01*
X0018884Y0003426D01*
X0018864Y0003419D01*
X0018846Y0003409D01*
X0018829Y0003396D01*
X0018815Y0003381D01*
X0018803Y0003363D01*
X0018795Y0003344D01*
X0018790Y0003324D01*
X0018788Y0003303D01*
X0018788Y0003145D02*
X0018790Y0003126D01*
X0018795Y0003109D01*
X0018804Y0003092D01*
X0018816Y0003078D01*
X0018830Y0003066D01*
X0018847Y0003057D01*
X0018864Y0003052D01*
X0018883Y0003050D01*
X0019042Y0003050D01*
X0019291Y0002987D02*
X0019544Y0003683D01*
X0019818Y0003430D02*
X0019976Y0003430D01*
X0019995Y0003428D01*
X0020012Y0003423D01*
X0020029Y0003414D01*
X0020043Y0003402D01*
X0020055Y0003388D01*
X0020064Y0003371D01*
X0020069Y0003354D01*
X0020071Y0003335D01*
X0020071Y0003145D01*
X0020069Y0003126D01*
X0020064Y0003109D01*
X0020055Y0003092D01*
X0020043Y0003078D01*
X0020029Y0003066D01*
X0020012Y0003057D01*
X0019995Y0003052D01*
X0019976Y0003050D01*
X0019818Y0003050D01*
X0019818Y0002860D02*
X0019818Y0003430D01*
X0020361Y0003430D02*
X0020551Y0003430D01*
X0020551Y0003367D01*
X0020361Y0003430D02*
X0020361Y0003050D01*
X0020758Y0003177D02*
X0020758Y0003303D01*
X0020760Y0003324D01*
X0020765Y0003344D01*
X0020773Y0003363D01*
X0020785Y0003381D01*
X0020799Y0003396D01*
X0020816Y0003409D01*
X0020834Y0003419D01*
X0020854Y0003426D01*
X0020875Y0003430D01*
X0020895Y0003430D01*
X0020916Y0003426D01*
X0020936Y0003419D01*
X0020954Y0003409D01*
X0020971Y0003396D01*
X0020985Y0003381D01*
X0020997Y0003363D01*
X0021005Y0003344D01*
X0021010Y0003324D01*
X0021012Y0003303D01*
X0021011Y0003303D02*
X0021011Y0003177D01*
X0021012Y0003177D02*
X0021010Y0003156D01*
X0021005Y0003136D01*
X0020997Y0003117D01*
X0020985Y0003099D01*
X0020971Y0003084D01*
X0020954Y0003071D01*
X0020936Y0003061D01*
X0020916Y0003054D01*
X0020895Y0003050D01*
X0020875Y0003050D01*
X0020854Y0003054D01*
X0020834Y0003061D01*
X0020816Y0003071D01*
X0020799Y0003084D01*
X0020785Y0003099D01*
X0020773Y0003117D01*
X0020765Y0003136D01*
X0020760Y0003156D01*
X0020758Y0003177D01*
X0021157Y0002860D02*
X0021176Y0002862D01*
X0021193Y0002867D01*
X0021210Y0002876D01*
X0021224Y0002888D01*
X0021236Y0002902D01*
X0021245Y0002919D01*
X0021250Y0002936D01*
X0021252Y0002955D01*
X0021252Y0003430D01*
X0021268Y0003588D02*
X0021236Y0003588D01*
X0021236Y0003620D01*
X0021268Y0003620D01*
X0021268Y0003588D01*
X0021522Y0003303D02*
X0021522Y0003145D01*
X0021524Y0003126D01*
X0021529Y0003109D01*
X0021538Y0003092D01*
X0021550Y0003078D01*
X0021564Y0003066D01*
X0021581Y0003057D01*
X0021598Y0003052D01*
X0021617Y0003050D01*
X0021775Y0003050D01*
X0021775Y0003240D02*
X0021522Y0003240D01*
X0021522Y0003303D02*
X0021524Y0003324D01*
X0021529Y0003344D01*
X0021537Y0003363D01*
X0021549Y0003381D01*
X0021563Y0003396D01*
X0021580Y0003409D01*
X0021598Y0003419D01*
X0021618Y0003426D01*
X0021639Y0003430D01*
X0021659Y0003430D01*
X0021680Y0003426D01*
X0021700Y0003419D01*
X0021718Y0003409D01*
X0021735Y0003396D01*
X0021749Y0003381D01*
X0021761Y0003363D01*
X0021769Y0003344D01*
X0021774Y0003324D01*
X0021776Y0003303D01*
X0021775Y0003303D02*
X0021775Y0003240D01*
X0022045Y0003145D02*
X0022045Y0003335D01*
X0022047Y0003354D01*
X0022052Y0003371D01*
X0022061Y0003388D01*
X0022073Y0003402D01*
X0022087Y0003414D01*
X0022104Y0003423D01*
X0022121Y0003428D01*
X0022140Y0003430D01*
X0022267Y0003430D01*
X0022451Y0003430D02*
X0022641Y0003430D01*
X0022514Y0003620D02*
X0022514Y0003145D01*
X0022516Y0003126D01*
X0022521Y0003109D01*
X0022530Y0003092D01*
X0022542Y0003078D01*
X0022556Y0003066D01*
X0022573Y0003057D01*
X0022590Y0003052D01*
X0022609Y0003050D01*
X0022641Y0003050D01*
X0022968Y0003430D02*
X0023005Y0003428D01*
X0023041Y0003421D01*
X0023077Y0003412D01*
X0023111Y0003398D01*
X0022968Y0003430D02*
X0022951Y0003428D01*
X0022934Y0003423D01*
X0022919Y0003414D01*
X0022906Y0003403D01*
X0022896Y0003389D01*
X0022889Y0003373D01*
X0022885Y0003355D01*
X0022886Y0003338D01*
X0022890Y0003321D01*
X0022897Y0003305D01*
X0022908Y0003291D01*
X0022921Y0003280D01*
X0022937Y0003272D01*
X0022936Y0003272D02*
X0023094Y0003208D01*
X0023110Y0003200D01*
X0023123Y0003189D01*
X0023134Y0003175D01*
X0023141Y0003159D01*
X0023145Y0003142D01*
X0023146Y0003125D01*
X0023142Y0003107D01*
X0023135Y0003091D01*
X0023125Y0003077D01*
X0023112Y0003066D01*
X0023097Y0003057D01*
X0023080Y0003052D01*
X0023063Y0003050D01*
X0023391Y0002987D02*
X0023644Y0003683D01*
X0023898Y0003493D02*
X0023900Y0003513D01*
X0023904Y0003532D01*
X0023912Y0003551D01*
X0023922Y0003568D01*
X0023935Y0003583D01*
X0023950Y0003596D01*
X0023967Y0003606D01*
X0023986Y0003614D01*
X0024005Y0003618D01*
X0024025Y0003620D01*
X0023898Y0003493D02*
X0023900Y0003471D01*
X0023906Y0003449D01*
X0023915Y0003429D01*
X0023928Y0003411D01*
X0023943Y0003395D01*
X0023961Y0003382D01*
X0024135Y0003287D01*
X0024072Y0003050D02*
X0024042Y0003052D01*
X0024012Y0003057D01*
X0023983Y0003065D01*
X0023955Y0003077D01*
X0023929Y0003092D01*
X0023904Y0003109D01*
X0023882Y0003129D01*
X0024136Y0003288D02*
X0024154Y0003275D01*
X0024169Y0003259D01*
X0024182Y0003241D01*
X0024191Y0003221D01*
X0024197Y0003199D01*
X0024199Y0003177D01*
X0024197Y0003155D01*
X0024191Y0003134D01*
X0024182Y0003114D01*
X0024169Y0003095D01*
X0024154Y0003080D01*
X0024136Y0003067D01*
X0024115Y0003058D01*
X0024094Y0003052D01*
X0024072Y0003050D01*
X0024167Y0003573D02*
X0024146Y0003587D01*
X0024124Y0003599D01*
X0024100Y0003608D01*
X0024075Y0003615D01*
X0024050Y0003619D01*
X0024025Y0003620D01*
X0024456Y0003303D02*
X0024456Y0003145D01*
X0024456Y0003240D02*
X0024710Y0003240D01*
X0024710Y0003303D01*
X0024708Y0003324D01*
X0024703Y0003344D01*
X0024695Y0003363D01*
X0024683Y0003381D01*
X0024669Y0003396D01*
X0024652Y0003409D01*
X0024634Y0003419D01*
X0024614Y0003426D01*
X0024593Y0003430D01*
X0024573Y0003430D01*
X0024552Y0003426D01*
X0024532Y0003419D01*
X0024514Y0003409D01*
X0024497Y0003396D01*
X0024483Y0003381D01*
X0024471Y0003363D01*
X0024463Y0003344D01*
X0024458Y0003324D01*
X0024456Y0003303D01*
X0024456Y0003145D02*
X0024458Y0003126D01*
X0024463Y0003109D01*
X0024472Y0003092D01*
X0024484Y0003078D01*
X0024498Y0003066D01*
X0024515Y0003057D01*
X0024532Y0003052D01*
X0024551Y0003050D01*
X0024710Y0003050D01*
X0024999Y0003050D02*
X0024999Y0003430D01*
X0025157Y0003430D01*
X0025176Y0003428D01*
X0025193Y0003423D01*
X0025210Y0003414D01*
X0025224Y0003402D01*
X0025236Y0003388D01*
X0025245Y0003371D01*
X0025250Y0003354D01*
X0025252Y0003335D01*
X0025252Y0003050D01*
X0025537Y0003145D02*
X0025537Y0003335D01*
X0025539Y0003354D01*
X0025544Y0003371D01*
X0025553Y0003388D01*
X0025565Y0003402D01*
X0025579Y0003414D01*
X0025596Y0003423D01*
X0025613Y0003428D01*
X0025632Y0003430D01*
X0025791Y0003430D01*
X0025791Y0003620D02*
X0025791Y0003050D01*
X0025632Y0003050D01*
X0025613Y0003052D01*
X0025596Y0003057D01*
X0025579Y0003066D01*
X0025565Y0003078D01*
X0025553Y0003092D01*
X0025544Y0003109D01*
X0025539Y0003126D01*
X0025537Y0003145D01*
X0026112Y0003430D02*
X0026238Y0003430D01*
X0026257Y0003428D01*
X0026274Y0003423D01*
X0026291Y0003414D01*
X0026305Y0003402D01*
X0026317Y0003388D01*
X0026326Y0003371D01*
X0026331Y0003354D01*
X0026333Y0003335D01*
X0026333Y0003050D01*
X0026191Y0003050D01*
X0026172Y0003052D01*
X0026153Y0003057D01*
X0026136Y0003065D01*
X0026120Y0003076D01*
X0026106Y0003090D01*
X0026095Y0003106D01*
X0026087Y0003123D01*
X0026082Y0003142D01*
X0026080Y0003161D01*
X0026082Y0003180D01*
X0026087Y0003199D01*
X0026095Y0003217D01*
X0026106Y0003232D01*
X0026120Y0003246D01*
X0026136Y0003257D01*
X0026153Y0003265D01*
X0026172Y0003270D01*
X0026191Y0003272D01*
X0026333Y0003272D01*
X0026613Y0003430D02*
X0026613Y0003050D01*
X0026848Y0002987D02*
X0027102Y0003683D01*
X0027351Y0003082D02*
X0027394Y0003068D01*
X0027437Y0003059D01*
X0027481Y0003053D01*
X0027525Y0003050D01*
X0027542Y0003052D01*
X0027559Y0003057D01*
X0027574Y0003066D01*
X0027587Y0003077D01*
X0027597Y0003091D01*
X0027604Y0003107D01*
X0027608Y0003125D01*
X0027607Y0003142D01*
X0027603Y0003159D01*
X0027596Y0003175D01*
X0027585Y0003189D01*
X0027572Y0003200D01*
X0027556Y0003208D01*
X0027557Y0003208D02*
X0027398Y0003272D01*
X0027399Y0003272D02*
X0027383Y0003280D01*
X0027370Y0003291D01*
X0027359Y0003305D01*
X0027352Y0003321D01*
X0027348Y0003338D01*
X0027347Y0003355D01*
X0027351Y0003373D01*
X0027358Y0003389D01*
X0027368Y0003403D01*
X0027381Y0003414D01*
X0027396Y0003423D01*
X0027413Y0003428D01*
X0027430Y0003430D01*
X0027467Y0003428D01*
X0027503Y0003421D01*
X0027539Y0003412D01*
X0027573Y0003398D01*
X0027874Y0003335D02*
X0027874Y0003145D01*
X0027876Y0003126D01*
X0027881Y0003109D01*
X0027890Y0003092D01*
X0027902Y0003078D01*
X0027916Y0003066D01*
X0027933Y0003057D01*
X0027950Y0003052D01*
X0027969Y0003050D01*
X0028096Y0003050D01*
X0028356Y0003050D02*
X0028356Y0003620D01*
X0028356Y0003430D02*
X0028514Y0003430D01*
X0028533Y0003428D01*
X0028550Y0003423D01*
X0028567Y0003414D01*
X0028581Y0003402D01*
X0028593Y0003388D01*
X0028602Y0003371D01*
X0028607Y0003354D01*
X0028609Y0003335D01*
X0028609Y0003050D01*
X0028899Y0003177D02*
X0028899Y0003303D01*
X0028898Y0003303D02*
X0028900Y0003324D01*
X0028905Y0003344D01*
X0028913Y0003363D01*
X0028925Y0003381D01*
X0028939Y0003396D01*
X0028956Y0003409D01*
X0028974Y0003419D01*
X0028994Y0003426D01*
X0029015Y0003430D01*
X0029035Y0003430D01*
X0029056Y0003426D01*
X0029076Y0003419D01*
X0029094Y0003409D01*
X0029111Y0003396D01*
X0029125Y0003381D01*
X0029137Y0003363D01*
X0029145Y0003344D01*
X0029150Y0003324D01*
X0029152Y0003303D01*
X0029152Y0003177D01*
X0029150Y0003156D01*
X0029145Y0003136D01*
X0029137Y0003117D01*
X0029125Y0003099D01*
X0029111Y0003084D01*
X0029094Y0003071D01*
X0029076Y0003061D01*
X0029056Y0003054D01*
X0029035Y0003050D01*
X0029015Y0003050D01*
X0028994Y0003054D01*
X0028974Y0003061D01*
X0028956Y0003071D01*
X0028939Y0003084D01*
X0028925Y0003099D01*
X0028913Y0003117D01*
X0028905Y0003136D01*
X0028900Y0003156D01*
X0028898Y0003177D01*
X0029421Y0003177D02*
X0029421Y0003303D01*
X0029423Y0003324D01*
X0029428Y0003344D01*
X0029436Y0003363D01*
X0029448Y0003381D01*
X0029462Y0003396D01*
X0029479Y0003409D01*
X0029497Y0003419D01*
X0029517Y0003426D01*
X0029538Y0003430D01*
X0029558Y0003430D01*
X0029579Y0003426D01*
X0029599Y0003419D01*
X0029617Y0003409D01*
X0029634Y0003396D01*
X0029648Y0003381D01*
X0029660Y0003363D01*
X0029668Y0003344D01*
X0029673Y0003324D01*
X0029675Y0003303D01*
X0029674Y0003303D02*
X0029674Y0003177D01*
X0029675Y0003177D02*
X0029673Y0003156D01*
X0029668Y0003136D01*
X0029660Y0003117D01*
X0029648Y0003099D01*
X0029634Y0003084D01*
X0029617Y0003071D01*
X0029599Y0003061D01*
X0029579Y0003054D01*
X0029558Y0003050D01*
X0029538Y0003050D01*
X0029517Y0003054D01*
X0029497Y0003061D01*
X0029479Y0003071D01*
X0029462Y0003084D01*
X0029448Y0003099D01*
X0029436Y0003117D01*
X0029428Y0003136D01*
X0029423Y0003156D01*
X0029421Y0003177D01*
X0029946Y0003145D02*
X0029946Y0003620D01*
X0029946Y0003145D02*
X0029948Y0003126D01*
X0029953Y0003109D01*
X0029962Y0003092D01*
X0029974Y0003078D01*
X0029988Y0003066D01*
X0030005Y0003057D01*
X0030022Y0003052D01*
X0030041Y0003050D01*
X0030245Y0002987D02*
X0030499Y0002987D01*
X0030772Y0003050D02*
X0030931Y0003050D01*
X0030950Y0003052D01*
X0030967Y0003057D01*
X0030984Y0003066D01*
X0030998Y0003078D01*
X0031010Y0003092D01*
X0031019Y0003109D01*
X0031024Y0003126D01*
X0031026Y0003145D01*
X0031026Y0003335D01*
X0031024Y0003354D01*
X0031019Y0003371D01*
X0031010Y0003388D01*
X0030998Y0003402D01*
X0030984Y0003414D01*
X0030967Y0003423D01*
X0030950Y0003428D01*
X0030931Y0003430D01*
X0030772Y0003430D01*
X0030772Y0002860D01*
X0031397Y0003050D02*
X0031539Y0003050D01*
X0031539Y0003335D01*
X0031539Y0003272D02*
X0031397Y0003272D01*
X0031539Y0003335D02*
X0031537Y0003354D01*
X0031532Y0003371D01*
X0031523Y0003388D01*
X0031511Y0003402D01*
X0031497Y0003414D01*
X0031480Y0003423D01*
X0031463Y0003428D01*
X0031444Y0003430D01*
X0031318Y0003430D01*
X0031397Y0003272D02*
X0031378Y0003270D01*
X0031359Y0003265D01*
X0031342Y0003257D01*
X0031326Y0003246D01*
X0031312Y0003232D01*
X0031301Y0003217D01*
X0031293Y0003199D01*
X0031288Y0003180D01*
X0031286Y0003161D01*
X0031288Y0003142D01*
X0031293Y0003123D01*
X0031301Y0003106D01*
X0031312Y0003090D01*
X0031326Y0003076D01*
X0031342Y0003065D01*
X0031359Y0003057D01*
X0031378Y0003052D01*
X0031397Y0003050D01*
X0031912Y0003430D02*
X0031949Y0003428D01*
X0031985Y0003421D01*
X0032021Y0003412D01*
X0032055Y0003398D01*
X0031912Y0003430D02*
X0031895Y0003428D01*
X0031878Y0003423D01*
X0031863Y0003414D01*
X0031850Y0003403D01*
X0031840Y0003389D01*
X0031833Y0003373D01*
X0031829Y0003355D01*
X0031830Y0003338D01*
X0031834Y0003321D01*
X0031841Y0003305D01*
X0031852Y0003291D01*
X0031865Y0003280D01*
X0031881Y0003272D01*
X0032039Y0003208D01*
X0032038Y0003208D02*
X0032054Y0003200D01*
X0032067Y0003189D01*
X0032078Y0003175D01*
X0032085Y0003159D01*
X0032089Y0003142D01*
X0032090Y0003125D01*
X0032086Y0003107D01*
X0032079Y0003091D01*
X0032069Y0003077D01*
X0032056Y0003066D01*
X0032041Y0003057D01*
X0032024Y0003052D01*
X0032007Y0003050D01*
X0032435Y0003430D02*
X0032472Y0003428D01*
X0032508Y0003421D01*
X0032544Y0003412D01*
X0032578Y0003398D01*
X0032435Y0003430D02*
X0032418Y0003428D01*
X0032401Y0003423D01*
X0032386Y0003414D01*
X0032373Y0003403D01*
X0032363Y0003389D01*
X0032356Y0003373D01*
X0032352Y0003355D01*
X0032353Y0003338D01*
X0032357Y0003321D01*
X0032364Y0003305D01*
X0032375Y0003291D01*
X0032388Y0003280D01*
X0032404Y0003272D01*
X0032403Y0003272D02*
X0032562Y0003208D01*
X0032561Y0003208D02*
X0032577Y0003200D01*
X0032590Y0003189D01*
X0032601Y0003175D01*
X0032608Y0003159D01*
X0032612Y0003142D01*
X0032613Y0003125D01*
X0032609Y0003107D01*
X0032602Y0003091D01*
X0032592Y0003077D01*
X0032579Y0003066D01*
X0032564Y0003057D01*
X0032547Y0003052D01*
X0032530Y0003050D01*
X0032858Y0002987D02*
X0033112Y0002987D01*
X0033369Y0003050D02*
X0033686Y0003050D01*
X0033369Y0003050D02*
X0033638Y0003367D01*
X0033543Y0003620D02*
X0033518Y0003618D01*
X0033493Y0003613D01*
X0033469Y0003604D01*
X0033446Y0003592D01*
X0033425Y0003577D01*
X0033407Y0003559D01*
X0033391Y0003539D01*
X0033378Y0003517D01*
X0033369Y0003493D01*
X0033639Y0003366D02*
X0033652Y0003381D01*
X0033664Y0003398D01*
X0033674Y0003417D01*
X0033680Y0003436D01*
X0033685Y0003456D01*
X0033686Y0003477D01*
X0033685Y0003477D02*
X0033683Y0003499D01*
X0033678Y0003521D01*
X0033670Y0003541D01*
X0033658Y0003560D01*
X0033643Y0003577D01*
X0033626Y0003592D01*
X0033607Y0003604D01*
X0033587Y0003612D01*
X0033565Y0003617D01*
X0033543Y0003619D01*
X0033972Y0003620D02*
X0034289Y0003620D01*
X0034131Y0003050D01*
X0034604Y0003050D02*
X0034604Y0003430D01*
X0034889Y0003430D01*
X0034908Y0003428D01*
X0034925Y0003423D01*
X0034942Y0003414D01*
X0034956Y0003402D01*
X0034968Y0003388D01*
X0034977Y0003371D01*
X0034982Y0003354D01*
X0034984Y0003335D01*
X0034984Y0003050D01*
X0034794Y0003050D02*
X0034794Y0003430D01*
X0035327Y0003430D02*
X0035613Y0003430D01*
X0035632Y0003428D01*
X0035649Y0003423D01*
X0035666Y0003414D01*
X0035680Y0003402D01*
X0035692Y0003388D01*
X0035701Y0003371D01*
X0035706Y0003354D01*
X0035708Y0003335D01*
X0035707Y0003335D02*
X0035707Y0003050D01*
X0035517Y0003050D02*
X0035517Y0003430D01*
X0035327Y0003430D02*
X0035327Y0003050D01*
X0035984Y0003050D02*
X0036016Y0003050D01*
X0036016Y0003082D01*
X0035984Y0003082D01*
X0035984Y0003050D01*
X0036297Y0003050D02*
X0036297Y0003620D01*
X0036455Y0003620D01*
X0036476Y0003618D01*
X0036496Y0003613D01*
X0036515Y0003605D01*
X0036533Y0003593D01*
X0036548Y0003579D01*
X0036561Y0003562D01*
X0036571Y0003544D01*
X0036578Y0003524D01*
X0036582Y0003503D01*
X0036582Y0003483D01*
X0036578Y0003462D01*
X0036571Y0003442D01*
X0036561Y0003424D01*
X0036548Y0003407D01*
X0036533Y0003393D01*
X0036515Y0003381D01*
X0036496Y0003373D01*
X0036476Y0003368D01*
X0036455Y0003366D01*
X0036455Y0003367D02*
X0036297Y0003367D01*
X0036455Y0003366D02*
X0036479Y0003364D01*
X0036502Y0003359D01*
X0036524Y0003350D01*
X0036544Y0003339D01*
X0036562Y0003324D01*
X0036579Y0003307D01*
X0036592Y0003287D01*
X0036602Y0003266D01*
X0036609Y0003243D01*
X0036613Y0003220D01*
X0036613Y0003196D01*
X0036609Y0003173D01*
X0036602Y0003150D01*
X0036592Y0003129D01*
X0036579Y0003109D01*
X0036562Y0003092D01*
X0036544Y0003077D01*
X0036524Y0003066D01*
X0036502Y0003057D01*
X0036479Y0003052D01*
X0036455Y0003050D01*
X0036297Y0003050D01*
X0036895Y0003050D02*
X0036895Y0003620D01*
X0037085Y0003303D01*
X0037275Y0003620D01*
X0037275Y0003050D01*
X0037623Y0003050D02*
X0037623Y0003620D01*
X0037781Y0003620D01*
X0037805Y0003618D01*
X0037828Y0003613D01*
X0037850Y0003604D01*
X0037870Y0003593D01*
X0037888Y0003578D01*
X0037905Y0003561D01*
X0037918Y0003541D01*
X0037928Y0003520D01*
X0037935Y0003497D01*
X0037939Y0003474D01*
X0037939Y0003450D01*
X0037935Y0003427D01*
X0037928Y0003404D01*
X0037918Y0003383D01*
X0037905Y0003363D01*
X0037888Y0003346D01*
X0037870Y0003331D01*
X0037850Y0003320D01*
X0037828Y0003311D01*
X0037805Y0003306D01*
X0037781Y0003304D01*
X0037781Y0003303D02*
X0037623Y0003303D01*
X0033972Y0003557D02*
X0033972Y0003620D01*
X0032530Y0003050D02*
X0032486Y0003053D01*
X0032442Y0003059D01*
X0032399Y0003068D01*
X0032356Y0003082D01*
X0032007Y0003050D02*
X0031963Y0003053D01*
X0031919Y0003059D01*
X0031876Y0003068D01*
X0031833Y0003082D01*
X0028096Y0003430D02*
X0027969Y0003430D01*
X0027950Y0003428D01*
X0027933Y0003423D01*
X0027916Y0003414D01*
X0027902Y0003402D01*
X0027890Y0003388D01*
X0027881Y0003371D01*
X0027876Y0003354D01*
X0027874Y0003335D01*
X0026629Y0003588D02*
X0026597Y0003588D01*
X0026597Y0003620D01*
X0026629Y0003620D01*
X0026629Y0003588D01*
X0023062Y0003050D02*
X0023018Y0003053D01*
X0022974Y0003059D01*
X0022931Y0003068D01*
X0022888Y0003082D01*
X0022267Y0003050D02*
X0022140Y0003050D01*
X0022121Y0003052D01*
X0022104Y0003057D01*
X0022087Y0003066D01*
X0022073Y0003078D01*
X0022061Y0003092D01*
X0022052Y0003109D01*
X0022047Y0003126D01*
X0022045Y0003145D01*
X0021157Y0002860D02*
X0021125Y0002860D01*
X0018564Y0003050D02*
X0018545Y0003052D01*
X0018528Y0003057D01*
X0018511Y0003066D01*
X0018497Y0003078D01*
X0018485Y0003092D01*
X0018476Y0003109D01*
X0018471Y0003126D01*
X0018469Y0003145D01*
X0016028Y0003050D02*
X0015984Y0003053D01*
X0015940Y0003059D01*
X0015897Y0003068D01*
X0015854Y0003082D01*
X0006705Y0003050D02*
X0006705Y0003620D01*
D107*
X0051170Y0044670D03*
X0059830Y0039670D03*
X0116170Y0039670D03*
X0124830Y0044670D03*
D108*
X0031730Y0052387D02*
X0031730Y0061048D01*
X0031730Y0113292D02*
X0031730Y0121953D01*
M02*
