G75*
%MOIN*%
%OFA0B0*%
%FSLAX25Y25*%
%IPPOS*%
%LPD*%
%AMOC8*
5,1,8,0,0,1.08239X$1,22.5*
%
%ADD10C,0.00098*%
%ADD11C,0.66929*%
%ADD12R,0.23622X0.27559*%
%ADD13C,0.08661*%
%ADD14C,0.08661*%
%ADD15C,0.04000*%
%ADD16C,0.03937*%
D10*
X0003092Y0085317D02*
X0003020Y0087391D01*
X0002998Y0089466D01*
X0003027Y0091541D01*
X0003108Y0093614D01*
X0003238Y0095685D01*
X0003420Y0097752D01*
X0003652Y0099814D01*
X0003935Y0101870D01*
X0004268Y0103918D01*
X0004651Y0105958D01*
X0005084Y0107987D01*
X0005567Y0110005D01*
X0006099Y0112011D01*
X0006680Y0114003D01*
X0007310Y0115980D01*
X0007987Y0117942D01*
X0008713Y0119886D01*
X0009486Y0121811D01*
X0010307Y0123717D01*
X0011173Y0125603D01*
X0012086Y0127466D01*
X0013044Y0129307D01*
X0014047Y0131124D01*
X0015094Y0132915D01*
X0016184Y0134681D01*
X0017318Y0136419D01*
X0018494Y0138129D01*
X0019711Y0139809D01*
X0020969Y0141459D01*
X0022268Y0143078D01*
X0023605Y0144664D01*
X0024981Y0146217D01*
X0026395Y0147736D01*
X0027846Y0149220D01*
X0029332Y0150668D01*
X0030854Y0152079D01*
X0032409Y0153452D01*
X0033998Y0154787D01*
X0035619Y0156083D01*
X0037272Y0157338D01*
X0038954Y0158552D01*
X0040666Y0159725D01*
X0042406Y0160855D01*
X0044174Y0161943D01*
X0045967Y0162987D01*
X0047785Y0163986D01*
X0049628Y0164941D01*
X0051493Y0165850D01*
X0053380Y0166713D01*
X0055288Y0167530D01*
X0057215Y0168300D01*
X0059160Y0169022D01*
X0061123Y0169696D01*
X0063101Y0170322D01*
X0065094Y0170900D01*
X0067101Y0171428D01*
X0069120Y0171907D01*
X0071150Y0172337D01*
X0073190Y0172716D01*
X0075239Y0173045D01*
X0077295Y0173324D01*
X0079358Y0173553D01*
X0081425Y0173731D01*
X0083496Y0173858D01*
X0085570Y0173934D01*
X0087645Y0173960D01*
X0104371Y0172292D02*
X0104556Y0172252D01*
X0104740Y0172207D01*
X0104923Y0172158D01*
X0105105Y0172104D01*
X0105285Y0172046D01*
X0105464Y0171983D01*
X0105641Y0171917D01*
X0105817Y0171846D01*
X0105991Y0171771D01*
X0106162Y0171691D01*
X0106332Y0171608D01*
X0106500Y0171520D01*
X0106666Y0171428D01*
X0106829Y0171332D01*
X0106990Y0171233D01*
X0107149Y0171129D01*
X0107305Y0171022D01*
X0107458Y0170911D01*
X0107609Y0170796D01*
X0107757Y0170678D01*
X0107902Y0170556D01*
X0108044Y0170430D01*
X0108182Y0170302D01*
X0108318Y0170169D01*
X0108450Y0170034D01*
X0108579Y0169895D01*
X0108705Y0169754D01*
X0108827Y0169609D01*
X0108946Y0169461D01*
X0109061Y0169311D01*
X0109172Y0169158D01*
X0109280Y0169002D01*
X0109384Y0168844D01*
X0109484Y0168683D01*
X0109580Y0168520D01*
X0109672Y0168354D01*
X0109760Y0168186D01*
X0109843Y0168016D01*
X0109923Y0167845D01*
X0109999Y0167671D01*
X0110070Y0167496D01*
X0110137Y0167319D01*
X0110200Y0167140D01*
X0110258Y0166960D01*
X0110312Y0166778D01*
X0110361Y0166595D01*
X0110407Y0166411D01*
X0110447Y0166226D01*
X0110483Y0166041D01*
X0110515Y0165854D01*
X0110542Y0165666D01*
X0110564Y0165478D01*
X0110582Y0165290D01*
X0110596Y0165101D01*
X0110604Y0164912D01*
X0110609Y0164723D01*
X0110608Y0164533D01*
X0110603Y0164344D01*
X0110594Y0164155D01*
X0110579Y0163966D01*
X0110486Y0162774D01*
X0110422Y0161580D01*
X0110386Y0160385D01*
X0110380Y0159190D01*
X0110403Y0157995D01*
X0110455Y0156801D01*
X0110536Y0155608D01*
X0110646Y0154418D01*
X0110786Y0153231D01*
X0110953Y0152047D01*
X0111150Y0150868D01*
X0111376Y0149694D01*
X0111629Y0148526D01*
X0111912Y0147364D01*
X0112222Y0146210D01*
X0112561Y0145064D01*
X0112927Y0143926D01*
X0113321Y0142797D01*
X0113742Y0141678D01*
X0114190Y0140570D01*
X0114666Y0139473D01*
X0115167Y0138388D01*
X0115695Y0137316D01*
X0116249Y0136257D01*
X0116829Y0135211D01*
X0117434Y0134180D01*
X0118064Y0133164D01*
X0118718Y0132164D01*
X0119397Y0131180D01*
X0120099Y0130213D01*
X0120825Y0129263D01*
X0121573Y0128331D01*
X0122344Y0127417D01*
X0123137Y0126523D01*
X0123952Y0125648D01*
X0124788Y0124793D01*
X0124788Y0124794D02*
X0125643Y0123958D01*
X0126518Y0123143D01*
X0127413Y0122349D01*
X0128326Y0121578D01*
X0129259Y0120829D01*
X0130209Y0120103D01*
X0131177Y0119400D01*
X0132161Y0118721D01*
X0133162Y0118067D01*
X0134178Y0117437D01*
X0135210Y0116832D01*
X0136255Y0116252D01*
X0137315Y0115698D01*
X0138388Y0115169D01*
X0139473Y0114668D01*
X0140571Y0114192D01*
X0141679Y0113744D01*
X0142798Y0113322D01*
X0143928Y0112929D01*
X0145066Y0112562D01*
X0146213Y0112224D01*
X0147368Y0111913D01*
X0148530Y0111631D01*
X0149698Y0111378D01*
X0150873Y0111152D01*
X0152052Y0110956D01*
X0153236Y0110788D01*
X0154424Y0110649D01*
X0155615Y0110539D01*
X0156808Y0110458D01*
X0158003Y0110407D01*
X0159198Y0110384D01*
X0160394Y0110391D01*
X0161590Y0110426D01*
X0162784Y0110491D01*
X0162974Y0110501D01*
X0163164Y0110506D01*
X0163354Y0110507D01*
X0163544Y0110503D01*
X0163734Y0110495D01*
X0163924Y0110481D01*
X0164113Y0110464D01*
X0164302Y0110442D01*
X0164490Y0110415D01*
X0164677Y0110383D01*
X0164864Y0110348D01*
X0165050Y0110307D01*
X0165235Y0110262D01*
X0165418Y0110213D01*
X0165601Y0110159D01*
X0165781Y0110101D01*
X0165961Y0110038D01*
X0166139Y0109971D01*
X0166315Y0109900D01*
X0166490Y0109824D01*
X0166662Y0109744D01*
X0166833Y0109661D01*
X0167001Y0109573D01*
X0167168Y0109480D01*
X0167332Y0109384D01*
X0167493Y0109284D01*
X0167652Y0109180D01*
X0167809Y0109073D01*
X0167963Y0108961D01*
X0168114Y0108846D01*
X0168262Y0108727D01*
X0168408Y0108604D01*
X0168550Y0108478D01*
X0168690Y0108349D01*
X0168826Y0108216D01*
X0168958Y0108080D01*
X0169088Y0107941D01*
X0169214Y0107799D01*
X0169337Y0107653D01*
X0169456Y0107505D01*
X0169571Y0107354D01*
X0169683Y0107200D01*
X0169791Y0107044D01*
X0169895Y0106885D01*
X0169995Y0106723D01*
X0170091Y0106559D01*
X0170183Y0106393D01*
X0170272Y0106225D01*
X0170356Y0106054D01*
X0170436Y0105882D01*
X0170511Y0105707D01*
X0170583Y0105531D01*
X0170650Y0105353D01*
X0170713Y0105174D01*
X0170771Y0104993D01*
X0170825Y0104810D01*
X0170875Y0104627D01*
X0170920Y0104442D01*
X0170960Y0104256D01*
X0170996Y0104070D01*
X0083647Y0004762D02*
X0081570Y0004891D01*
X0079497Y0005072D01*
X0077428Y0005303D01*
X0075366Y0005585D01*
X0073312Y0005917D01*
X0071266Y0006300D01*
X0069230Y0006733D01*
X0067206Y0007215D01*
X0065194Y0007747D01*
X0063195Y0008328D01*
X0061212Y0008958D01*
X0059244Y0009636D01*
X0057294Y0010362D01*
X0055362Y0011136D01*
X0053449Y0011957D01*
X0051558Y0012825D01*
X0049688Y0013738D01*
X0047841Y0014698D01*
X0046018Y0015702D01*
X0044220Y0016750D01*
X0042449Y0017843D01*
X0040704Y0018978D01*
X0038989Y0020156D01*
X0037302Y0021376D01*
X0035646Y0022636D01*
X0034021Y0023937D01*
X0032429Y0025277D01*
X0030870Y0026656D01*
X0029345Y0028072D01*
X0027856Y0029526D01*
X0026402Y0031015D01*
X0024986Y0032540D01*
X0023607Y0034099D01*
X0022267Y0035691D01*
X0020966Y0037316D01*
X0019706Y0038972D01*
X0018486Y0040659D01*
X0017308Y0042374D01*
X0016173Y0044119D01*
X0015080Y0045890D01*
X0014032Y0047688D01*
X0013028Y0049511D01*
X0012068Y0051358D01*
X0011155Y0053228D01*
X0010287Y0055119D01*
X0009466Y0057032D01*
X0008692Y0058964D01*
X0007966Y0060914D01*
X0007288Y0062882D01*
X0006658Y0064865D01*
X0006077Y0066864D01*
X0005545Y0068876D01*
X0005063Y0070901D01*
X0004630Y0072936D01*
X0004247Y0074982D01*
X0003915Y0077036D01*
X0003633Y0079099D01*
X0003402Y0081167D01*
X0003221Y0083240D01*
X0003092Y0085317D01*
X0083648Y0004761D02*
X0085722Y0004689D01*
X0087797Y0004667D01*
X0089872Y0004696D01*
X0091945Y0004777D01*
X0094016Y0004908D01*
X0096083Y0005089D01*
X0098145Y0005322D01*
X0100201Y0005604D01*
X0102249Y0005937D01*
X0104289Y0006320D01*
X0106318Y0006754D01*
X0108336Y0007236D01*
X0110342Y0007768D01*
X0112334Y0008349D01*
X0114311Y0008979D01*
X0116273Y0009657D01*
X0118217Y0010383D01*
X0120142Y0011156D01*
X0122048Y0011976D01*
X0123934Y0012843D01*
X0125798Y0013755D01*
X0127638Y0014713D01*
X0129455Y0015716D01*
X0131246Y0016763D01*
X0133012Y0017854D01*
X0134750Y0018987D01*
X0136460Y0020163D01*
X0138140Y0021381D01*
X0139790Y0022639D01*
X0141409Y0023937D01*
X0142995Y0025275D01*
X0144549Y0026651D01*
X0146068Y0028065D01*
X0147551Y0029516D01*
X0148999Y0031002D01*
X0150410Y0032524D01*
X0151784Y0034079D01*
X0153118Y0035668D01*
X0154414Y0037289D01*
X0155669Y0038942D01*
X0156883Y0040624D01*
X0158056Y0042336D01*
X0159187Y0044076D01*
X0160274Y0045844D01*
X0161318Y0047637D01*
X0162317Y0049456D01*
X0163272Y0051298D01*
X0164181Y0053163D01*
X0165045Y0055050D01*
X0165861Y0056958D01*
X0166631Y0058885D01*
X0167353Y0060830D01*
X0168028Y0062793D01*
X0168654Y0064771D01*
X0169231Y0066765D01*
X0169759Y0068771D01*
X0170238Y0070790D01*
X0170668Y0072821D01*
X0171047Y0074861D01*
X0171376Y0076909D01*
X0171655Y0078966D01*
X0171884Y0081028D01*
X0172062Y0083096D01*
X0172189Y0085167D01*
X0172265Y0087241D01*
X0172291Y0089315D01*
X0172291Y0089316D02*
X0172271Y0091169D01*
X0172210Y0093022D01*
X0172109Y0094873D01*
X0171967Y0096721D01*
X0171785Y0098566D01*
X0171562Y0100406D01*
X0171300Y0102241D01*
X0170997Y0104070D01*
X0104372Y0172293D02*
X0102534Y0172642D01*
X0100689Y0172951D01*
X0098837Y0173219D01*
X0096980Y0173446D01*
X0095119Y0173631D01*
X0093254Y0173776D01*
X0091386Y0173879D01*
X0089516Y0173941D01*
X0087645Y0173961D01*
D11*
X0088000Y0088400D03*
D12*
X0032000Y0088400D03*
X0144000Y0088400D03*
D13*
X0124830Y0044670D03*
X0116170Y0039670D03*
X0059830Y0039670D03*
X0051170Y0044670D03*
D14*
X0031730Y0052387D02*
X0031730Y0061048D01*
X0031730Y0113292D02*
X0031730Y0121953D01*
D15*
X0031730Y0061048D02*
X0031730Y0048440D01*
X0035500Y0044670D01*
X0051964Y0030706D02*
X0058000Y0027170D01*
X0118000Y0027170D01*
X0124036Y0030706D01*
X0124830Y0044670D01*
X0116170Y0039670D02*
X0108000Y0037170D01*
X0088000Y0037170D01*
X0068000Y0037170D01*
D16*
X0051170Y0044670D02*
X0035500Y0044670D01*
X0051170Y0044670D02*
X0051964Y0030706D01*
X0059830Y0039670D02*
X0068000Y0037170D01*
X0088000Y0037170D02*
X0088000Y0088400D01*
X0131225Y0109840D02*
X0107212Y0133853D01*
X0057134Y0133853D01*
X0031730Y0113292D01*
X0032000Y0088400D01*
X0131225Y0109840D02*
X0135583Y0109840D01*
X0144457Y0103117D01*
X0144000Y0088400D01*
M02*
