G04 EAGLE Gerber RS-274X export*
G75*
%MOMM*%
%FSLAX34Y34*%
%LPD*%
%INBottom layer*%
%IPPOS*%
%AMOC8*
5,1,8,0,0,1.08239X$1,22.5*%
G01*
%ADD10C,0.001000*%
%ADD11C,2.540000*%
%ADD12C,2.200000*%
%ADD13C,2.200000*%
%ADD14C,1.930400*%
%ADD15R,1.000000X1.100000*%
%ADD16R,1.000000X1.400000*%
%ADD17P,1.319650X8X202.500000*%
%ADD18C,1.219200*%
%ADD19C,0.500000*%


D10*
X455400Y240400D02*
X454290Y218418D01*
X451032Y197070D01*
X445734Y176466D01*
X438504Y156712D01*
X429451Y137918D01*
X418681Y120192D01*
X406305Y103640D01*
X392428Y88372D01*
X377160Y74496D01*
X360609Y62119D01*
X342882Y51349D01*
X324088Y42296D01*
X304334Y35066D01*
X283730Y29768D01*
X262383Y26510D01*
X240400Y25400D01*
X218418Y26510D01*
X197070Y29768D01*
X176466Y35066D01*
X156712Y42296D01*
X137918Y51349D01*
X120192Y62119D01*
X103640Y74496D01*
X88372Y88372D01*
X74496Y103640D01*
X62119Y120192D01*
X51349Y137918D01*
X42296Y156712D01*
X35066Y176466D01*
X29768Y197070D01*
X26510Y218418D01*
X25400Y240400D01*
X26510Y262383D01*
X29768Y283730D01*
X35066Y304334D01*
X42296Y324088D01*
X51349Y342882D01*
X62119Y360609D01*
X74496Y377160D01*
X88372Y392428D01*
X103640Y406305D01*
X120192Y418681D01*
X137918Y429451D01*
X156712Y438504D01*
X176466Y445734D01*
X197070Y451032D01*
X218418Y454290D01*
X240400Y455400D01*
X262383Y454290D01*
X283730Y451032D01*
X304334Y445734D01*
X324088Y438504D01*
X342882Y429451D01*
X360609Y418681D01*
X377160Y406305D01*
X392428Y392428D01*
X406305Y377160D01*
X418681Y360609D01*
X429451Y342882D01*
X438504Y324088D01*
X445734Y304334D01*
X451032Y283730D01*
X454290Y262383D01*
X455400Y240400D01*
D11*
X241300Y257125D03*
X291300Y223125D03*
X191300Y223125D03*
D12*
X341199Y120650D03*
X319202Y107950D03*
D13*
X98375Y146600D02*
X98375Y168600D01*
X98375Y301300D02*
X98375Y323300D01*
D12*
X141402Y120650D03*
X163399Y107950D03*
D14*
X241300Y368300D03*
X215900Y368300D03*
X266700Y368300D03*
D15*
X300600Y336550D03*
X283600Y336550D03*
X192650Y336550D03*
X175650Y336550D03*
D16*
X231800Y315800D03*
X241300Y293800D03*
X250800Y315800D03*
D17*
X361950Y238175D03*
D18*
X387350Y238175D03*
D19*
X240000Y295000D02*
X210000Y295000D01*
X240000Y295000D02*
X241300Y293800D01*
X210000Y190000D02*
X145000Y125000D01*
X210000Y190000D02*
X210000Y295000D01*
X145000Y125000D02*
X141402Y120650D01*
X104675Y295000D02*
X210000Y295000D01*
X104675Y295000D02*
X98375Y301300D01*
X182075Y385000D02*
X270000Y385000D01*
X182075Y385000D02*
X98375Y301300D01*
X270000Y385000D02*
X300600Y354400D01*
X300600Y336550D01*
X99775Y170000D02*
X98375Y168600D01*
X138175Y170000D02*
X191300Y223125D01*
X138175Y170000D02*
X99775Y170000D01*
X270000Y340000D02*
X280000Y340000D01*
X283600Y336550D01*
X270000Y340000D02*
X270000Y365000D01*
X266700Y368300D01*
X270000Y340000D02*
X196100Y340000D01*
X192650Y336550D01*
X345000Y240000D02*
X360000Y240000D01*
X345000Y240000D02*
X330000Y240000D01*
X360000Y240000D02*
X361950Y238175D01*
X345000Y240000D02*
X345000Y124451D01*
X341199Y120650D01*
X330000Y240000D02*
X254200Y315800D01*
X250800Y315800D01*
X230000Y320000D02*
X180000Y320000D01*
X180000Y335000D01*
X230000Y320000D02*
X231800Y315800D01*
X180000Y335000D02*
X175650Y336550D01*
X255000Y330000D02*
X260000Y325000D01*
X255000Y330000D02*
X246000Y330000D01*
X231800Y315800D01*
X260000Y325000D02*
X300525Y325000D01*
X387350Y238175D01*
X215900Y368300D02*
X212600Y365000D01*
X204100Y365000D01*
X175650Y336550D01*
M02*
