G04 EAGLE Gerber RS-274X export*
G75*
%MOMM*%
%FSLAX34Y34*%
%LPD*%
%INSolder Mask top*%
%IPPOS*%
%AMOC8*
5,1,8,0,0,1.08239X$1,22.5*%
G01*
%ADD10C,0.001000*%
%ADD11C,2.540000*%
%ADD12C,2.200000*%
%ADD13C,2.200000*%
%ADD14C,1.930400*%
%ADD15P,1.319650X8X202.500000*%
%ADD16C,1.219200*%

G36*
X240712Y38055D02*
X240712Y38055D01*
X240714Y38057D01*
X240714Y49293D01*
X240713Y49294D01*
X240714Y49294D01*
X238518Y57239D01*
X236086Y66039D01*
X233654Y74839D01*
X231222Y83639D01*
X228790Y92438D01*
X226358Y101238D01*
X223926Y110038D01*
X221494Y118838D01*
X221492Y118840D01*
X221491Y118841D01*
X212651Y121230D01*
X203811Y123619D01*
X194971Y126007D01*
X186131Y128396D01*
X177291Y130785D01*
X168451Y133174D01*
X159610Y135563D01*
X150785Y137947D01*
X159610Y140360D01*
X168451Y142777D01*
X177291Y145194D01*
X186131Y147611D01*
X194971Y150028D01*
X203811Y152446D01*
X212651Y154863D01*
X221491Y157280D01*
X221493Y157282D01*
X221494Y157282D01*
X223926Y166039D01*
X226358Y174795D01*
X228790Y183551D01*
X231222Y192307D01*
X236086Y209819D01*
X238518Y218575D01*
X240714Y226480D01*
X240713Y226480D01*
X240714Y226481D01*
X240714Y237718D01*
X240712Y237720D01*
X240711Y237722D01*
X240711Y237721D01*
X240710Y237722D01*
X240708Y237720D01*
X240706Y237719D01*
X238216Y228724D01*
X235490Y218875D01*
X232764Y209026D01*
X230038Y199177D01*
X227312Y189328D01*
X224586Y179479D01*
X221860Y169630D01*
X219135Y159783D01*
X209171Y157054D01*
X199204Y154325D01*
X189238Y151596D01*
X179272Y148867D01*
X169305Y146138D01*
X159339Y143409D01*
X149372Y140680D01*
X139406Y137951D01*
X139405Y137950D01*
X139403Y137949D01*
X139404Y137948D01*
X139403Y137947D01*
X139405Y137945D01*
X139406Y137943D01*
X149372Y135254D01*
X159339Y132565D01*
X169305Y129876D01*
X179271Y127187D01*
X189238Y124497D01*
X199204Y121808D01*
X209170Y119119D01*
X219134Y116431D01*
X221860Y106528D01*
X224586Y96624D01*
X227312Y86719D01*
X230038Y76815D01*
X232764Y66910D01*
X235490Y57006D01*
X238216Y47101D01*
X240706Y38055D01*
X240708Y38054D01*
X240709Y38052D01*
X240710Y38053D01*
X240710Y38052D01*
X240712Y38055D01*
G37*
G36*
X241191Y38081D02*
X241191Y38081D01*
X241194Y38082D01*
X243676Y47101D01*
X246402Y57006D01*
X249128Y66910D01*
X251854Y76815D01*
X254581Y86719D01*
X257307Y96624D01*
X260033Y106528D01*
X262758Y116431D01*
X272722Y119119D01*
X282688Y121808D01*
X292655Y124497D01*
X302621Y127187D01*
X312587Y129876D01*
X322554Y132565D01*
X332520Y135254D01*
X342486Y137943D01*
X342487Y137945D01*
X342489Y137945D01*
X342489Y137947D01*
X342489Y137948D01*
X342487Y137949D01*
X342486Y137951D01*
X332520Y140680D01*
X322554Y143409D01*
X312587Y146138D01*
X302621Y148867D01*
X292654Y151596D01*
X282688Y154325D01*
X272721Y157054D01*
X262757Y159783D01*
X260032Y169630D01*
X257306Y179479D01*
X254580Y189328D01*
X251854Y199177D01*
X249128Y209026D01*
X246402Y218875D01*
X243676Y228724D01*
X241194Y237692D01*
X241192Y237693D01*
X241190Y237695D01*
X241189Y237695D01*
X241188Y237693D01*
X241186Y237691D01*
X241186Y226454D01*
X241186Y226453D01*
X243374Y218575D01*
X245806Y209819D01*
X248238Y201063D01*
X250670Y192307D01*
X253102Y183551D01*
X255534Y174795D01*
X257966Y166039D01*
X260398Y157282D01*
X260400Y157281D01*
X260401Y157280D01*
X269241Y154863D01*
X278081Y152446D01*
X286921Y150028D01*
X295761Y147611D01*
X304601Y145194D01*
X313442Y142777D01*
X322282Y140360D01*
X331107Y137947D01*
X322282Y135563D01*
X313442Y133174D01*
X304602Y130785D01*
X295761Y128396D01*
X286921Y126007D01*
X278081Y123619D01*
X269241Y121230D01*
X260401Y118841D01*
X260400Y118839D01*
X260398Y118838D01*
X257966Y110038D01*
X255534Y101238D01*
X253102Y92438D01*
X250670Y83639D01*
X248238Y74839D01*
X245806Y66039D01*
X243374Y57239D01*
X241186Y49321D01*
X241186Y49320D01*
X241186Y38084D01*
X241187Y38082D01*
X241188Y38080D01*
X241189Y38080D01*
X241189Y38079D01*
X241191Y38081D01*
G37*
G36*
X240712Y61605D02*
X240712Y61605D01*
X240714Y61606D01*
X240714Y69636D01*
X240713Y69636D01*
X240714Y69637D01*
X239028Y76057D01*
X237106Y83378D01*
X235184Y90699D01*
X233262Y98020D01*
X231340Y105341D01*
X229418Y112662D01*
X227496Y119982D01*
X225574Y127303D01*
X225572Y127305D01*
X225571Y127306D01*
X218901Y128637D01*
X212232Y129968D01*
X205562Y131298D01*
X198893Y132629D01*
X192223Y133959D01*
X185553Y135290D01*
X178884Y136621D01*
X172235Y137947D01*
X178884Y139317D01*
X185553Y140690D01*
X192223Y142064D01*
X198893Y143437D01*
X205562Y144811D01*
X212232Y146185D01*
X218901Y147558D01*
X225571Y148932D01*
X225573Y148934D01*
X225574Y148935D01*
X227496Y156197D01*
X229418Y163460D01*
X231340Y170722D01*
X233262Y177984D01*
X235184Y185247D01*
X237106Y192509D01*
X239028Y199772D01*
X240714Y206141D01*
X240713Y206142D01*
X240714Y206142D01*
X240714Y214172D01*
X240712Y214174D01*
X240711Y214176D01*
X240710Y214176D01*
X240708Y214174D01*
X240706Y214173D01*
X238776Y207069D01*
X236610Y199094D01*
X234444Y191120D01*
X232278Y183145D01*
X230112Y175171D01*
X227946Y167196D01*
X225780Y159222D01*
X223615Y151250D01*
X215874Y149588D01*
X208130Y147925D01*
X200386Y146263D01*
X192643Y144601D01*
X184899Y142938D01*
X177155Y141276D01*
X169411Y139614D01*
X161667Y137951D01*
X161666Y137950D01*
X161664Y137948D01*
X161665Y137948D01*
X161664Y137947D01*
X161666Y137945D01*
X161667Y137943D01*
X169411Y136335D01*
X177155Y134728D01*
X184899Y133120D01*
X192643Y131512D01*
X200386Y129905D01*
X208130Y128297D01*
X215874Y126689D01*
X223615Y125082D01*
X225780Y117040D01*
X227946Y108996D01*
X230112Y100951D01*
X232278Y92906D01*
X234444Y84862D01*
X236610Y76817D01*
X238776Y68772D01*
X240706Y61605D01*
X240708Y61604D01*
X240709Y61602D01*
X240710Y61603D01*
X240710Y61602D01*
X240712Y61605D01*
G37*
G36*
X241192Y61632D02*
X241192Y61632D01*
X241194Y61633D01*
X243116Y68772D01*
X245282Y76817D01*
X247448Y84862D01*
X249614Y92906D01*
X251780Y100951D01*
X253946Y108996D01*
X256112Y117040D01*
X258277Y125082D01*
X266018Y126689D01*
X273762Y128297D01*
X281506Y129905D01*
X289250Y131512D01*
X296993Y133120D01*
X304737Y134728D01*
X312481Y136335D01*
X320225Y137943D01*
X320226Y137945D01*
X320228Y137946D01*
X320228Y137947D01*
X320226Y137949D01*
X320225Y137951D01*
X312481Y139614D01*
X304737Y141276D01*
X296993Y142938D01*
X289250Y144601D01*
X281506Y146263D01*
X273762Y147925D01*
X266018Y149588D01*
X258277Y151250D01*
X256112Y159222D01*
X253946Y167196D01*
X251780Y175171D01*
X249614Y183145D01*
X247448Y191120D01*
X245282Y199094D01*
X243116Y207069D01*
X241194Y214146D01*
X241192Y214147D01*
X241190Y214149D01*
X241190Y214148D01*
X241189Y214149D01*
X241188Y214146D01*
X241186Y214145D01*
X241186Y206114D01*
X241186Y206113D01*
X242864Y199772D01*
X244786Y192509D01*
X246708Y185247D01*
X248630Y177984D01*
X250552Y170722D01*
X252474Y163460D01*
X254396Y156197D01*
X256318Y148935D01*
X256321Y148933D01*
X256321Y148932D01*
X262991Y147558D01*
X269661Y146185D01*
X276330Y144811D01*
X283000Y143437D01*
X289669Y142064D01*
X296339Y140690D01*
X303008Y139317D01*
X309657Y137947D01*
X303008Y136621D01*
X296339Y135290D01*
X289669Y133959D01*
X283000Y132629D01*
X276330Y131298D01*
X269661Y129968D01*
X262991Y128637D01*
X256321Y127306D01*
X256320Y127304D01*
X256318Y127303D01*
X254396Y119982D01*
X252474Y112662D01*
X250552Y105341D01*
X248630Y98020D01*
X246708Y90699D01*
X244786Y83378D01*
X242864Y76057D01*
X241186Y69665D01*
X241186Y69664D01*
X241186Y61634D01*
X241187Y61632D01*
X241188Y61630D01*
X241189Y61630D01*
X241192Y61632D01*
G37*
G36*
X265927Y89115D02*
X265927Y89115D01*
X269153Y89468D01*
X269154Y89468D01*
X271869Y90148D01*
X274040Y90980D01*
X274040Y90981D01*
X275633Y91791D01*
X276613Y92405D01*
X276947Y92649D01*
X276948Y92653D01*
X276949Y92654D01*
X276045Y94695D01*
X275141Y96737D01*
X274237Y98778D01*
X273333Y100819D01*
X272430Y102861D01*
X271526Y104902D01*
X270622Y106943D01*
X269722Y108975D01*
X271718Y108075D01*
X273725Y107171D01*
X275731Y106268D01*
X277737Y105364D01*
X279743Y104460D01*
X281749Y103556D01*
X283755Y102652D01*
X285761Y101748D01*
X285767Y101750D01*
X287606Y105355D01*
X288725Y108823D01*
X288726Y108826D01*
X288726Y108830D01*
X288727Y108834D01*
X288728Y108838D01*
X288729Y108843D01*
X288729Y108847D01*
X288741Y108919D01*
X288742Y108919D01*
X288742Y108923D01*
X288743Y108928D01*
X288744Y108932D01*
X288744Y108936D01*
X288745Y108940D01*
X288746Y108945D01*
X288747Y108949D01*
X288747Y108953D01*
X288748Y108957D01*
X288749Y108962D01*
X288749Y108966D01*
X288750Y108970D01*
X288751Y108974D01*
X288752Y108979D01*
X288752Y108983D01*
X288765Y109059D01*
X288766Y109064D01*
X288767Y109068D01*
X288767Y109072D01*
X288768Y109076D01*
X288769Y109081D01*
X288769Y109085D01*
X288770Y109085D01*
X288769Y109085D01*
X288770Y109089D01*
X288771Y109093D01*
X288772Y109098D01*
X288772Y109102D01*
X288773Y109106D01*
X288774Y109110D01*
X288775Y109115D01*
X288775Y109119D01*
X288776Y109123D01*
X288789Y109200D01*
X288790Y109204D01*
X288790Y109208D01*
X288791Y109212D01*
X288792Y109217D01*
X288792Y109221D01*
X288793Y109225D01*
X288794Y109229D01*
X288795Y109234D01*
X288795Y109238D01*
X288796Y109242D01*
X288797Y109246D01*
X288797Y109251D01*
X288798Y109251D01*
X288797Y109251D01*
X288798Y109255D01*
X288799Y109259D01*
X288800Y109263D01*
X288812Y109336D01*
X288813Y109340D01*
X288813Y109344D01*
X288814Y109348D01*
X288815Y109353D01*
X288815Y109357D01*
X288816Y109361D01*
X288817Y109365D01*
X288818Y109370D01*
X288818Y109374D01*
X288819Y109378D01*
X288820Y109382D01*
X288820Y109387D01*
X288821Y109391D01*
X288822Y109395D01*
X288823Y109399D01*
X288836Y109476D01*
X288836Y109480D01*
X288837Y109484D01*
X288838Y109489D01*
X288838Y109493D01*
X288839Y109497D01*
X288840Y109501D01*
X288841Y109506D01*
X288841Y109510D01*
X288842Y109514D01*
X288843Y109518D01*
X288843Y109523D01*
X288844Y109527D01*
X288845Y109531D01*
X288846Y109535D01*
X288846Y109540D01*
X288859Y109616D01*
X288860Y109620D01*
X288861Y109625D01*
X288861Y109629D01*
X288862Y109633D01*
X288863Y109637D01*
X288864Y109642D01*
X288864Y109646D01*
X288865Y109650D01*
X288866Y109654D01*
X288866Y109659D01*
X288867Y109663D01*
X288868Y109667D01*
X288869Y109671D01*
X288869Y109676D01*
X288870Y109680D01*
X288882Y109752D01*
X288883Y109756D01*
X288884Y109761D01*
X288884Y109765D01*
X288885Y109769D01*
X288886Y109773D01*
X288886Y109778D01*
X288887Y109778D01*
X288886Y109778D01*
X288887Y109782D01*
X288888Y109786D01*
X288889Y109790D01*
X288889Y109795D01*
X288890Y109799D01*
X288891Y109803D01*
X288892Y109807D01*
X288892Y109812D01*
X288893Y109816D01*
X288906Y109892D01*
X288907Y109897D01*
X288907Y109901D01*
X288908Y109905D01*
X288909Y109909D01*
X288909Y109914D01*
X288910Y109918D01*
X288911Y109922D01*
X288912Y109926D01*
X288912Y109931D01*
X288913Y109935D01*
X288914Y109939D01*
X288914Y109943D01*
X288915Y109943D01*
X288914Y109943D01*
X288915Y109948D01*
X288916Y109952D01*
X288917Y109956D01*
X288930Y110033D01*
X288930Y110037D01*
X288931Y110041D01*
X288932Y110045D01*
X288932Y110050D01*
X288933Y110054D01*
X288934Y110058D01*
X288935Y110062D01*
X288935Y110067D01*
X288936Y110071D01*
X288937Y110075D01*
X288937Y110079D01*
X288938Y110084D01*
X288939Y110088D01*
X288940Y110092D01*
X288940Y110096D01*
X288953Y110169D01*
X288953Y110173D01*
X288954Y110177D01*
X288955Y110181D01*
X288955Y110186D01*
X288956Y110190D01*
X288957Y110194D01*
X288958Y110198D01*
X288958Y110203D01*
X288959Y110207D01*
X288960Y110211D01*
X288960Y110215D01*
X288961Y110220D01*
X288962Y110224D01*
X288963Y110228D01*
X288963Y110232D01*
X288976Y110309D01*
X288977Y110313D01*
X288978Y110317D01*
X288978Y110322D01*
X288979Y110326D01*
X288980Y110330D01*
X288981Y110334D01*
X288981Y110339D01*
X288982Y110343D01*
X288983Y110347D01*
X288983Y110351D01*
X288984Y110356D01*
X288985Y110360D01*
X288986Y110364D01*
X288986Y110368D01*
X288987Y110373D01*
X289000Y110449D01*
X289001Y110453D01*
X289001Y110458D01*
X289002Y110462D01*
X289003Y110466D01*
X289003Y110470D01*
X289004Y110470D01*
X289003Y110470D01*
X289004Y110475D01*
X289005Y110479D01*
X289006Y110483D01*
X289006Y110487D01*
X289007Y110492D01*
X289008Y110496D01*
X289009Y110500D01*
X289009Y110504D01*
X289010Y110509D01*
X289011Y110513D01*
X289023Y110585D01*
X289024Y110589D01*
X289024Y110594D01*
X289025Y110598D01*
X289026Y110602D01*
X289026Y110606D01*
X289027Y110611D01*
X289028Y110615D01*
X289029Y110619D01*
X289029Y110623D01*
X289030Y110628D01*
X289031Y110632D01*
X289031Y110636D01*
X289032Y110636D01*
X289031Y110636D01*
X289032Y110640D01*
X289033Y110645D01*
X289034Y110649D01*
X289047Y110725D01*
X289047Y110730D01*
X289048Y110734D01*
X289049Y110738D01*
X289049Y110742D01*
X289050Y110747D01*
X289051Y110751D01*
X289052Y110755D01*
X289052Y110759D01*
X289053Y110764D01*
X289054Y110768D01*
X289054Y110772D01*
X289055Y110776D01*
X289056Y110781D01*
X289057Y110785D01*
X289057Y110789D01*
X289070Y110866D01*
X289071Y110870D01*
X289072Y110874D01*
X289072Y110878D01*
X289073Y110883D01*
X289074Y110887D01*
X289075Y110891D01*
X289075Y110895D01*
X289076Y110900D01*
X289077Y110904D01*
X289077Y110908D01*
X289078Y110912D01*
X289079Y110917D01*
X289080Y110921D01*
X289080Y110925D01*
X289081Y110929D01*
X289093Y111002D01*
X289094Y111006D01*
X289095Y111010D01*
X289095Y111014D01*
X289096Y111019D01*
X289097Y111023D01*
X289098Y111027D01*
X289098Y111031D01*
X289099Y111036D01*
X289100Y111040D01*
X289100Y111044D01*
X289101Y111048D01*
X289102Y111053D01*
X289103Y111057D01*
X289103Y111061D01*
X289104Y111065D01*
X289117Y111142D01*
X289118Y111146D01*
X289118Y111150D01*
X289119Y111155D01*
X289120Y111159D01*
X289120Y111163D01*
X289121Y111163D01*
X289120Y111163D01*
X289121Y111167D01*
X289122Y111172D01*
X289123Y111176D01*
X289123Y111180D01*
X289124Y111184D01*
X289125Y111189D01*
X289126Y111193D01*
X289126Y111197D01*
X289127Y111201D01*
X289128Y111206D01*
X289141Y111282D01*
X289141Y111286D01*
X289142Y111291D01*
X289143Y111295D01*
X289143Y111299D01*
X289144Y111303D01*
X289145Y111308D01*
X289146Y111312D01*
X289146Y111316D01*
X289147Y111320D01*
X289148Y111325D01*
X289148Y111329D01*
X289149Y111329D01*
X289148Y111329D01*
X289149Y111333D01*
X289150Y111337D01*
X289151Y111342D01*
X289164Y111418D01*
X289164Y111422D01*
X289165Y111427D01*
X289166Y111431D01*
X289166Y111435D01*
X289167Y111439D01*
X289168Y111444D01*
X289169Y111448D01*
X289169Y111452D01*
X289170Y111456D01*
X289171Y111461D01*
X289171Y111465D01*
X289172Y111469D01*
X289173Y111473D01*
X289174Y111478D01*
X289174Y111482D01*
X289187Y111558D01*
X289188Y111563D01*
X289189Y111567D01*
X289189Y111571D01*
X289190Y111575D01*
X289191Y111580D01*
X289192Y111584D01*
X289192Y111588D01*
X289193Y111592D01*
X289194Y111597D01*
X289194Y111601D01*
X289195Y111605D01*
X289196Y111609D01*
X289197Y111614D01*
X289197Y111618D01*
X289198Y111622D01*
X289211Y111699D01*
X289212Y111703D01*
X289212Y111707D01*
X289213Y111711D01*
X289214Y111716D01*
X289215Y111720D01*
X289215Y111724D01*
X289216Y111728D01*
X289217Y111733D01*
X289217Y111737D01*
X289218Y111741D01*
X289219Y111745D01*
X289220Y111750D01*
X289220Y111754D01*
X289221Y111758D01*
X289234Y111835D01*
X289235Y111839D01*
X289235Y111843D01*
X289236Y111847D01*
X289237Y111852D01*
X289237Y111856D01*
X289238Y111856D01*
X289237Y111856D01*
X289238Y111860D01*
X289239Y111864D01*
X289240Y111869D01*
X289240Y111873D01*
X289241Y111877D01*
X289242Y111881D01*
X289243Y111886D01*
X289243Y111890D01*
X289244Y111894D01*
X289245Y111898D01*
X289258Y111975D01*
X289258Y111979D01*
X289259Y111983D01*
X289260Y111988D01*
X289260Y111992D01*
X289261Y111996D01*
X289262Y112000D01*
X289263Y112005D01*
X289263Y112009D01*
X289264Y112013D01*
X289265Y112017D01*
X289265Y112022D01*
X289266Y112022D01*
X289265Y112022D01*
X289266Y112026D01*
X289267Y112030D01*
X289268Y112034D01*
X289268Y112039D01*
X289270Y112048D01*
X289387Y114924D01*
X289223Y117345D01*
X289223Y117346D01*
X288924Y119206D01*
X288924Y119207D01*
X288637Y120401D01*
X288509Y120822D01*
X288504Y120825D01*
X285538Y120025D01*
X282571Y119224D01*
X279605Y118423D01*
X276638Y117623D01*
X273672Y116822D01*
X270705Y116021D01*
X267739Y115221D01*
X264772Y114420D01*
X264771Y114418D01*
X264769Y114417D01*
X263932Y111376D01*
X263095Y108335D01*
X262258Y105295D01*
X261421Y102254D01*
X260585Y99213D01*
X259748Y96173D01*
X258911Y93132D01*
X258074Y90091D01*
X258076Y90086D01*
X258077Y90086D01*
X262223Y89263D01*
X262224Y89263D01*
X262224Y89262D01*
X265927Y89115D01*
X265927Y89115D01*
G37*
G36*
X219669Y89263D02*
X219669Y89263D01*
X223815Y90086D01*
X223819Y90090D01*
X223818Y90091D01*
X223819Y90091D01*
X222982Y93132D01*
X222145Y96173D01*
X221308Y99213D01*
X220471Y102254D01*
X219634Y105295D01*
X218797Y108336D01*
X217960Y111376D01*
X217123Y114417D01*
X217121Y114419D01*
X217120Y114420D01*
X214154Y115221D01*
X211187Y116021D01*
X208221Y116822D01*
X205254Y117623D01*
X202288Y118423D01*
X199321Y119224D01*
X196355Y120025D01*
X193388Y120825D01*
X193383Y120823D01*
X193383Y120822D01*
X193255Y120401D01*
X192968Y119207D01*
X192670Y117346D01*
X192505Y114924D01*
X192506Y114924D01*
X192505Y114924D01*
X192622Y112048D01*
X192623Y112048D01*
X192622Y112048D01*
X193167Y108823D01*
X194286Y105355D01*
X196126Y101750D01*
X196131Y101748D01*
X196131Y101749D01*
X196131Y101748D01*
X198137Y102652D01*
X200143Y103556D01*
X202149Y104460D01*
X204156Y105364D01*
X206162Y106268D01*
X208168Y107172D01*
X210174Y108075D01*
X212170Y108975D01*
X211271Y106944D01*
X210367Y104902D01*
X209463Y102861D01*
X208559Y100820D01*
X207655Y98778D01*
X206751Y96737D01*
X205847Y94695D01*
X204944Y92654D01*
X204945Y92650D01*
X204945Y92649D01*
X205279Y92405D01*
X205279Y92406D01*
X205279Y92405D01*
X206260Y91791D01*
X207852Y90981D01*
X210023Y90148D01*
X210024Y90148D01*
X212739Y89468D01*
X215965Y89115D01*
X215966Y89115D01*
X219669Y89263D01*
G37*
G36*
X193034Y155199D02*
X193034Y155199D01*
X193035Y155198D01*
X196045Y156023D01*
X199056Y156847D01*
X202067Y157672D01*
X205078Y158496D01*
X208089Y159320D01*
X211099Y160145D01*
X214110Y160969D01*
X217121Y161794D01*
X217123Y161796D01*
X217124Y161797D01*
X217948Y164774D01*
X218772Y167752D01*
X219597Y170730D01*
X220421Y173708D01*
X221245Y176685D01*
X222069Y179663D01*
X222893Y182641D01*
X223717Y185619D01*
X223717Y185620D01*
X223715Y185624D01*
X223714Y185624D01*
X219572Y186450D01*
X219572Y186449D01*
X219572Y186450D01*
X215880Y186604D01*
X212670Y186260D01*
X212669Y186260D01*
X209973Y185591D01*
X209972Y185591D01*
X207820Y184769D01*
X206244Y183968D01*
X206244Y183967D01*
X206244Y183968D01*
X205275Y183360D01*
X204945Y183119D01*
X204944Y183115D01*
X204944Y183114D01*
X205847Y181072D01*
X206751Y179031D01*
X207655Y176990D01*
X208559Y174948D01*
X209463Y172907D01*
X210367Y170866D01*
X211271Y168824D01*
X212170Y166793D01*
X210174Y167692D01*
X208168Y168596D01*
X206162Y169500D01*
X204156Y170404D01*
X202149Y171308D01*
X200143Y172212D01*
X198137Y173115D01*
X196131Y174019D01*
X196126Y174018D01*
X196126Y174017D01*
X194271Y170424D01*
X193112Y166985D01*
X192511Y163801D01*
X192510Y163801D01*
X192511Y163801D01*
X192510Y163801D01*
X192496Y163580D01*
X192474Y163231D01*
X192462Y163048D01*
X192440Y162700D01*
X192417Y162351D01*
X192395Y162003D01*
X192383Y161820D01*
X192361Y161472D01*
X192338Y161123D01*
X192329Y160972D01*
X192329Y160971D01*
X192428Y158597D01*
X192670Y156777D01*
X192916Y155612D01*
X192917Y155612D01*
X192916Y155612D01*
X193029Y155201D01*
X193034Y155198D01*
X193034Y155199D01*
G37*
G36*
X288863Y155201D02*
X288863Y155201D01*
X288976Y155612D01*
X289223Y156777D01*
X289222Y156777D01*
X289223Y156777D01*
X289465Y158597D01*
X289464Y158597D01*
X289465Y158597D01*
X289564Y160971D01*
X289564Y160972D01*
X289382Y163801D01*
X288781Y166985D01*
X288780Y166985D01*
X287622Y170424D01*
X287621Y170424D01*
X285767Y174018D01*
X285762Y174020D01*
X285761Y174019D01*
X283755Y173116D01*
X281749Y172212D01*
X279743Y171308D01*
X277737Y170404D01*
X275731Y169500D01*
X273725Y168596D01*
X271718Y167692D01*
X269722Y166793D01*
X270622Y168824D01*
X271526Y170866D01*
X272430Y172907D01*
X273333Y174948D01*
X274237Y176990D01*
X275141Y179031D01*
X276045Y181072D01*
X276949Y183114D01*
X276948Y183118D01*
X276947Y183119D01*
X276618Y183360D01*
X276617Y183360D01*
X275649Y183968D01*
X275648Y183968D01*
X274072Y184769D01*
X271920Y185591D01*
X271919Y185591D01*
X269223Y186260D01*
X269222Y186260D01*
X266013Y186604D01*
X266012Y186604D01*
X262321Y186450D01*
X262320Y186450D01*
X258179Y185624D01*
X258178Y185624D01*
X258176Y185622D01*
X258175Y185620D01*
X258175Y185619D01*
X258999Y182641D01*
X259823Y179663D01*
X260648Y176686D01*
X261472Y173708D01*
X262296Y170730D01*
X263120Y167752D01*
X263944Y164775D01*
X264768Y161797D01*
X264771Y161795D01*
X264771Y161794D01*
X267782Y160969D01*
X270793Y160145D01*
X273804Y159321D01*
X276815Y158496D01*
X279825Y157672D01*
X282836Y156847D01*
X285847Y156023D01*
X288858Y155198D01*
X288863Y155201D01*
G37*
G36*
X240444Y135068D02*
X240444Y135068D01*
X240443Y135068D01*
X240444Y135069D01*
X240444Y147496D01*
X240440Y147501D01*
X240440Y147500D01*
X240439Y147501D01*
X240395Y147500D01*
X240253Y147500D01*
X240183Y147501D01*
X240112Y147501D01*
X239760Y147506D01*
X239495Y147522D01*
X239303Y147562D01*
X239170Y147638D01*
X239082Y147761D01*
X239025Y147947D01*
X238986Y148206D01*
X238951Y148551D01*
X238904Y149087D01*
X238890Y149490D01*
X238926Y149777D01*
X239029Y149967D01*
X239217Y150079D01*
X239507Y150131D01*
X239919Y150141D01*
X240439Y150127D01*
X240444Y150131D01*
X240443Y150131D01*
X240444Y150131D01*
X240444Y159105D01*
X240440Y159109D01*
X240439Y159109D01*
X240422Y159109D01*
X240422Y159108D01*
X240421Y159109D01*
X240239Y159066D01*
X240238Y159065D01*
X240238Y159066D01*
X240079Y158986D01*
X240079Y158985D01*
X240078Y158985D01*
X239941Y158868D01*
X239941Y158867D01*
X239940Y158867D01*
X239825Y158711D01*
X239825Y158710D01*
X239824Y158710D01*
X239729Y158515D01*
X239652Y158280D01*
X239652Y158279D01*
X239593Y158004D01*
X239548Y157685D01*
X239517Y157366D01*
X239498Y157047D01*
X239499Y157047D01*
X239498Y157047D01*
X239490Y156727D01*
X239489Y156408D01*
X239492Y156088D01*
X239498Y155768D01*
X239504Y155449D01*
X239504Y155341D01*
X239496Y155244D01*
X239479Y155159D01*
X239447Y155087D01*
X239398Y155030D01*
X239328Y154986D01*
X239232Y154959D01*
X239107Y154949D01*
X238398Y154939D01*
X238397Y154939D01*
X237688Y154916D01*
X236980Y154884D01*
X236272Y154846D01*
X235563Y154803D01*
X234855Y154759D01*
X234147Y154717D01*
X233439Y154678D01*
X233218Y154687D01*
X233008Y154736D01*
X232813Y154821D01*
X232638Y154939D01*
X232487Y155086D01*
X232363Y155258D01*
X232272Y155454D01*
X232216Y155669D01*
X232180Y155904D01*
X232149Y156141D01*
X232122Y156379D01*
X232097Y156617D01*
X232072Y156855D01*
X232045Y157092D01*
X232014Y157329D01*
X231978Y157565D01*
X231953Y157706D01*
X231953Y157707D01*
X231920Y157848D01*
X231875Y157984D01*
X231815Y158109D01*
X231815Y158110D01*
X231736Y158218D01*
X231735Y158218D01*
X231735Y158219D01*
X231632Y158306D01*
X231631Y158306D01*
X231501Y158366D01*
X231500Y158366D01*
X231339Y158394D01*
X231339Y158393D01*
X231338Y158394D01*
X231151Y158391D01*
X231150Y158391D01*
X230971Y158363D01*
X230804Y158311D01*
X230803Y158310D01*
X230803Y158311D01*
X230650Y158233D01*
X230649Y158233D01*
X230513Y158131D01*
X230512Y158130D01*
X230394Y158003D01*
X230394Y158002D01*
X230298Y157851D01*
X230298Y157850D01*
X230225Y157673D01*
X230226Y157673D01*
X230225Y157673D01*
X230115Y157256D01*
X230047Y156841D01*
X230047Y156840D01*
X230046Y156840D01*
X230020Y156428D01*
X230021Y156428D01*
X230020Y156428D01*
X230038Y156020D01*
X230038Y156019D01*
X230099Y155616D01*
X230099Y155615D01*
X230205Y155218D01*
X230206Y155218D01*
X230206Y155217D01*
X230358Y154827D01*
X230358Y154826D01*
X230556Y154443D01*
X230916Y153927D01*
X230916Y153926D01*
X231324Y153513D01*
X231325Y153513D01*
X231325Y153512D01*
X231777Y153194D01*
X232269Y152964D01*
X232270Y152964D01*
X232797Y152815D01*
X232798Y152815D01*
X233357Y152739D01*
X233358Y152739D01*
X233944Y152730D01*
X233945Y152730D01*
X234555Y152779D01*
X235098Y152840D01*
X235642Y152892D01*
X236187Y152935D01*
X236732Y152970D01*
X237278Y152997D01*
X237825Y153016D01*
X238371Y153029D01*
X238918Y153034D01*
X239054Y153035D01*
X239179Y153032D01*
X239289Y153020D01*
X239381Y152991D01*
X239452Y152942D01*
X239501Y152864D01*
X239524Y152753D01*
X239519Y152601D01*
X239511Y152473D01*
X239509Y152345D01*
X239502Y152222D01*
X239481Y152110D01*
X239434Y152015D01*
X239351Y151941D01*
X239222Y151893D01*
X239034Y151877D01*
X238421Y151874D01*
X237809Y151852D01*
X237197Y151815D01*
X236586Y151770D01*
X235976Y151721D01*
X235365Y151672D01*
X234755Y151630D01*
X234144Y151597D01*
X233678Y151552D01*
X233677Y151552D01*
X233247Y151458D01*
X233246Y151457D01*
X233246Y151458D01*
X232846Y151318D01*
X232473Y151136D01*
X232124Y150915D01*
X232123Y150915D01*
X231793Y150658D01*
X231478Y150369D01*
X231174Y150051D01*
X230937Y149764D01*
X230730Y149463D01*
X230550Y149150D01*
X230550Y149149D01*
X230549Y149149D01*
X230393Y148825D01*
X230257Y148492D01*
X230257Y148491D01*
X230256Y148491D01*
X230138Y148150D01*
X230138Y148149D01*
X230035Y147801D01*
X229943Y147447D01*
X229943Y147446D01*
X229656Y146110D01*
X229438Y144768D01*
X229438Y144767D01*
X229437Y144767D01*
X229280Y143421D01*
X229175Y142070D01*
X229114Y140715D01*
X229087Y139358D01*
X229087Y137999D01*
X229105Y136639D01*
X229105Y136638D01*
X229108Y136617D01*
X229111Y136592D01*
X229115Y136566D01*
X229118Y136540D01*
X229122Y136513D01*
X229125Y136487D01*
X229128Y136463D01*
X229129Y136463D01*
X229128Y136463D01*
X229132Y136441D01*
X229162Y136210D01*
X229162Y136209D01*
X229220Y136009D01*
X229220Y136008D01*
X229306Y135839D01*
X229307Y135839D01*
X229307Y135838D01*
X229422Y135702D01*
X229422Y135701D01*
X229567Y135596D01*
X229568Y135596D01*
X229742Y135523D01*
X229743Y135524D01*
X229743Y135523D01*
X229948Y135484D01*
X229949Y135484D01*
X230186Y135478D01*
X230414Y135504D01*
X230414Y135505D01*
X230415Y135504D01*
X230611Y135562D01*
X230612Y135562D01*
X230780Y135649D01*
X230780Y135650D01*
X230781Y135650D01*
X230921Y135766D01*
X230921Y135767D01*
X230922Y135767D01*
X231036Y135911D01*
X231036Y135912D01*
X231126Y136084D01*
X231126Y136085D01*
X231127Y136085D01*
X231194Y136283D01*
X231193Y136284D01*
X231194Y136284D01*
X231239Y136507D01*
X231239Y136508D01*
X231278Y136799D01*
X231278Y136800D01*
X231308Y137091D01*
X231331Y137384D01*
X231349Y137676D01*
X231362Y137969D01*
X231374Y138261D01*
X231384Y138554D01*
X231394Y138847D01*
X231434Y139965D01*
X231474Y141083D01*
X231524Y142199D01*
X231591Y143314D01*
X231682Y144427D01*
X231682Y144428D01*
X231807Y145537D01*
X231808Y145545D01*
X231817Y145600D01*
X231825Y145655D01*
X231851Y145829D01*
X231860Y145885D01*
X231868Y145940D01*
X231886Y146059D01*
X231894Y146114D01*
X231902Y146169D01*
X231929Y146344D01*
X231937Y146399D01*
X231945Y146454D01*
X231963Y146573D01*
X231972Y146628D01*
X231974Y146644D01*
X232190Y147746D01*
X232267Y148061D01*
X232363Y148362D01*
X232481Y148642D01*
X232629Y148897D01*
X232812Y149122D01*
X233036Y149312D01*
X233307Y149462D01*
X233631Y149567D01*
X233934Y149633D01*
X234238Y149692D01*
X234544Y149747D01*
X234850Y149798D01*
X235157Y149846D01*
X235464Y149894D01*
X235771Y149942D01*
X236077Y149993D01*
X236191Y150008D01*
X236294Y150011D01*
X236386Y149999D01*
X236465Y149969D01*
X236531Y149918D01*
X236584Y149843D01*
X236622Y149741D01*
X236646Y149607D01*
X236670Y149412D01*
X236697Y149217D01*
X236728Y149022D01*
X236762Y148828D01*
X236801Y148635D01*
X236843Y148442D01*
X236888Y148250D01*
X236889Y148250D01*
X236888Y148250D01*
X236938Y148060D01*
X236974Y147888D01*
X236983Y147747D01*
X236963Y147634D01*
X236914Y147546D01*
X236835Y147480D01*
X236726Y147433D01*
X236585Y147402D01*
X236412Y147384D01*
X236005Y147357D01*
X235625Y147325D01*
X235265Y147291D01*
X234914Y147253D01*
X234563Y147212D01*
X234204Y147168D01*
X233825Y147121D01*
X233420Y147072D01*
X233419Y147072D01*
X233214Y147035D01*
X233213Y147035D01*
X233025Y146974D01*
X233024Y146974D01*
X232856Y146889D01*
X232856Y146888D01*
X232712Y146777D01*
X232597Y146638D01*
X232596Y146638D01*
X232512Y146471D01*
X232513Y146470D01*
X232512Y146470D01*
X232464Y146274D01*
X232455Y146047D01*
X232456Y146047D01*
X232455Y146047D01*
X232489Y145830D01*
X232489Y145829D01*
X232561Y145664D01*
X232562Y145664D01*
X232562Y145663D01*
X232667Y145542D01*
X232668Y145542D01*
X232800Y145457D01*
X232801Y145457D01*
X232954Y145402D01*
X232955Y145402D01*
X232955Y145401D01*
X233125Y145368D01*
X233304Y145348D01*
X233305Y145348D01*
X233489Y145334D01*
X234192Y145302D01*
X234866Y145299D01*
X235521Y145318D01*
X236166Y145350D01*
X236811Y145388D01*
X237465Y145425D01*
X238138Y145451D01*
X238839Y145460D01*
X238948Y145460D01*
X239064Y145457D01*
X239179Y145446D01*
X239287Y145419D01*
X239382Y145373D01*
X239457Y145300D01*
X239507Y145194D01*
X239524Y145050D01*
X239529Y144808D01*
X239536Y144596D01*
X239531Y144417D01*
X239501Y144271D01*
X239433Y144159D01*
X239313Y144081D01*
X239129Y144037D01*
X238864Y144031D01*
X238121Y143988D01*
X237406Y143956D01*
X236710Y143929D01*
X236025Y143905D01*
X235345Y143879D01*
X234661Y143847D01*
X233967Y143805D01*
X233254Y143749D01*
X233253Y143748D01*
X233253Y143749D01*
X233020Y143708D01*
X233020Y143707D01*
X232805Y143630D01*
X232613Y143523D01*
X232613Y143522D01*
X232612Y143522D01*
X232450Y143390D01*
X232449Y143390D01*
X232320Y143238D01*
X232320Y143237D01*
X232230Y143071D01*
X232230Y143070D01*
X232185Y142895D01*
X232185Y142894D01*
X232184Y142894D01*
X232189Y142716D01*
X232190Y142716D01*
X232190Y142715D01*
X232245Y142517D01*
X232246Y142517D01*
X232246Y142516D01*
X232332Y142360D01*
X232332Y142359D01*
X232445Y142238D01*
X232446Y142238D01*
X232581Y142148D01*
X232582Y142148D01*
X232736Y142085D01*
X232905Y142044D01*
X232906Y142044D01*
X233085Y142019D01*
X233086Y142020D01*
X233086Y142019D01*
X233272Y142007D01*
X233273Y142007D01*
X233984Y141985D01*
X234681Y141978D01*
X235368Y141985D01*
X236050Y142005D01*
X236732Y142035D01*
X237418Y142075D01*
X238113Y142121D01*
X238821Y142173D01*
X239016Y142182D01*
X239179Y142173D01*
X239313Y142142D01*
X239418Y142085D01*
X239497Y141995D01*
X239550Y141868D01*
X239578Y141699D01*
X239584Y141481D01*
X239571Y140816D01*
X239562Y140149D01*
X239557Y139483D01*
X239558Y138816D01*
X239565Y138149D01*
X239580Y137483D01*
X239603Y136816D01*
X239635Y136149D01*
X239636Y136149D01*
X239635Y136149D01*
X239664Y135917D01*
X239664Y135916D01*
X239722Y135704D01*
X239723Y135703D01*
X239808Y135513D01*
X239918Y135351D01*
X239919Y135351D01*
X239919Y135350D01*
X240052Y135220D01*
X240053Y135219D01*
X240206Y135124D01*
X240207Y135124D01*
X240380Y135068D01*
X240381Y135069D01*
X240381Y135068D01*
X240439Y135065D01*
X240444Y135068D01*
G37*
G36*
X240946Y135099D02*
X240946Y135099D01*
X240947Y135098D01*
X241112Y135141D01*
X241113Y135141D01*
X241254Y135201D01*
X241255Y135201D01*
X241375Y135278D01*
X241376Y135279D01*
X241376Y135278D01*
X241478Y135372D01*
X241478Y135373D01*
X241563Y135484D01*
X241634Y135612D01*
X241633Y135613D01*
X241634Y135613D01*
X241691Y135758D01*
X241691Y135759D01*
X241738Y135921D01*
X241771Y136068D01*
X241801Y136215D01*
X241826Y136362D01*
X241846Y136510D01*
X241862Y136659D01*
X241873Y136808D01*
X241879Y136958D01*
X241881Y137109D01*
X241879Y137663D01*
X241879Y138216D01*
X241880Y138770D01*
X241881Y139323D01*
X241881Y139877D01*
X241878Y140430D01*
X241873Y140983D01*
X241864Y141536D01*
X241873Y141650D01*
X241903Y141754D01*
X241953Y141847D01*
X242020Y141927D01*
X242102Y141993D01*
X242196Y142041D01*
X242301Y142069D01*
X242415Y142076D01*
X242889Y142063D01*
X243363Y142056D01*
X243838Y142052D01*
X244313Y142052D01*
X244788Y142052D01*
X245262Y142051D01*
X245736Y142047D01*
X246211Y142038D01*
X246477Y142032D01*
X246743Y142028D01*
X247010Y142025D01*
X247276Y142025D01*
X247543Y142027D01*
X247809Y142031D01*
X248076Y142037D01*
X248342Y142046D01*
X248513Y142056D01*
X248680Y142078D01*
X248681Y142078D01*
X248839Y142118D01*
X248839Y142119D01*
X248839Y142118D01*
X248982Y142183D01*
X248983Y142183D01*
X249105Y142278D01*
X249105Y142279D01*
X249106Y142279D01*
X249202Y142410D01*
X249202Y142411D01*
X249266Y142586D01*
X249266Y142587D01*
X249293Y142811D01*
X249292Y142811D01*
X249293Y142811D01*
X249292Y142812D01*
X249293Y142812D01*
X249278Y143039D01*
X249277Y143039D01*
X249278Y143040D01*
X249226Y143227D01*
X249225Y143227D01*
X249225Y143228D01*
X249140Y143380D01*
X249026Y143501D01*
X249025Y143501D01*
X248886Y143594D01*
X248885Y143594D01*
X248885Y143595D01*
X248725Y143665D01*
X248548Y143716D01*
X248547Y143716D01*
X248358Y143753D01*
X248139Y143786D01*
X247919Y143816D01*
X247699Y143844D01*
X247478Y143870D01*
X247257Y143892D01*
X247036Y143912D01*
X246815Y143930D01*
X246594Y143944D01*
X246070Y143977D01*
X245547Y144007D01*
X245024Y144035D01*
X244500Y144057D01*
X243977Y144073D01*
X243453Y144079D01*
X242929Y144075D01*
X242405Y144058D01*
X242183Y144062D01*
X242035Y144118D01*
X241946Y144217D01*
X241899Y144348D01*
X241882Y144503D01*
X241882Y144670D01*
X241883Y144840D01*
X241873Y145001D01*
X241885Y145148D01*
X241907Y145264D01*
X241941Y145353D01*
X241990Y145416D01*
X242055Y145459D01*
X242140Y145485D01*
X242248Y145496D01*
X242380Y145497D01*
X242792Y145489D01*
X243263Y145484D01*
X243758Y145481D01*
X243879Y145481D01*
X244242Y145480D01*
X244680Y145480D01*
X245037Y145481D01*
X245278Y145482D01*
X245368Y145482D01*
X245775Y145461D01*
X246134Y145438D01*
X246458Y145416D01*
X246760Y145394D01*
X247054Y145374D01*
X247352Y145357D01*
X247667Y145342D01*
X248013Y145332D01*
X248014Y145333D01*
X248014Y145332D01*
X248188Y145343D01*
X248189Y145343D01*
X248342Y145379D01*
X248342Y145380D01*
X248475Y145440D01*
X248475Y145441D01*
X248475Y145440D01*
X248589Y145522D01*
X248589Y145523D01*
X248589Y145522D01*
X248686Y145622D01*
X248686Y145623D01*
X248766Y145739D01*
X248832Y145867D01*
X248832Y145868D01*
X248884Y146007D01*
X248920Y146172D01*
X248920Y146173D01*
X248921Y146325D01*
X248920Y146326D01*
X248889Y146467D01*
X248888Y146468D01*
X248889Y146468D01*
X248828Y146597D01*
X248828Y146598D01*
X248742Y146714D01*
X248741Y146714D01*
X248632Y146816D01*
X248632Y146817D01*
X248504Y146905D01*
X248360Y146978D01*
X248359Y146978D01*
X248359Y146979D01*
X248262Y147017D01*
X248161Y147049D01*
X248058Y147075D01*
X247953Y147096D01*
X247953Y147097D01*
X247847Y147114D01*
X247740Y147128D01*
X247633Y147139D01*
X247527Y147149D01*
X247155Y147180D01*
X246811Y147211D01*
X246486Y147241D01*
X246170Y147270D01*
X245853Y147297D01*
X245528Y147322D01*
X245183Y147345D01*
X244810Y147366D01*
X244659Y147379D01*
X244532Y147405D01*
X244434Y147450D01*
X244364Y147516D01*
X244323Y147608D01*
X244313Y147733D01*
X244336Y147894D01*
X244391Y148096D01*
X244440Y148256D01*
X244483Y148418D01*
X244483Y148419D01*
X244519Y148582D01*
X244550Y148747D01*
X244575Y148913D01*
X244596Y149079D01*
X244612Y149246D01*
X244624Y149414D01*
X244641Y149576D01*
X244671Y149713D01*
X244716Y149823D01*
X244777Y149908D01*
X244856Y149969D01*
X244954Y150005D01*
X245074Y150018D01*
X245217Y150008D01*
X245455Y149980D01*
X245694Y149958D01*
X245934Y149939D01*
X246173Y149920D01*
X246412Y149899D01*
X246649Y149872D01*
X246884Y149837D01*
X247117Y149790D01*
X247402Y149719D01*
X247685Y149636D01*
X247959Y149534D01*
X248217Y149407D01*
X248453Y149249D01*
X248661Y149054D01*
X248835Y148816D01*
X248968Y148528D01*
X249079Y148191D01*
X249176Y147851D01*
X249262Y147508D01*
X249338Y147162D01*
X249406Y146814D01*
X249467Y146465D01*
X249522Y146114D01*
X249574Y145763D01*
X249704Y144757D01*
X249805Y143749D01*
X249884Y142739D01*
X249945Y141728D01*
X249993Y140717D01*
X250033Y139705D01*
X250070Y138692D01*
X250108Y137680D01*
X250115Y137477D01*
X250123Y137274D01*
X250134Y137071D01*
X250152Y136868D01*
X250181Y136667D01*
X250181Y136666D01*
X250224Y136467D01*
X250224Y136466D01*
X250285Y136270D01*
X250367Y136076D01*
X250513Y135841D01*
X250688Y135664D01*
X250689Y135664D01*
X250689Y135663D01*
X250885Y135545D01*
X250886Y135546D01*
X250886Y135545D01*
X251099Y135486D01*
X251100Y135486D01*
X251322Y135487D01*
X251322Y135488D01*
X251323Y135487D01*
X251546Y135550D01*
X251547Y135550D01*
X251766Y135674D01*
X251767Y135675D01*
X251975Y135861D01*
X251975Y135862D01*
X252099Y136018D01*
X252194Y136182D01*
X252264Y136352D01*
X252264Y136353D01*
X252313Y136528D01*
X252313Y136529D01*
X252345Y136708D01*
X252364Y136891D01*
X252374Y137076D01*
X252380Y137262D01*
X252390Y138080D01*
X252383Y138898D01*
X252360Y139714D01*
X252322Y140530D01*
X252269Y141345D01*
X252202Y142160D01*
X252122Y142974D01*
X252029Y143787D01*
X251950Y144386D01*
X251860Y144982D01*
X251758Y145576D01*
X251644Y146167D01*
X251518Y146756D01*
X251380Y147342D01*
X251380Y147343D01*
X251230Y147927D01*
X251067Y148509D01*
X250849Y149101D01*
X250555Y149648D01*
X250191Y150142D01*
X250191Y150143D01*
X249763Y150577D01*
X249763Y150578D01*
X249278Y150947D01*
X249277Y150947D01*
X248741Y151243D01*
X248160Y151459D01*
X248159Y151459D01*
X247540Y151588D01*
X247539Y151588D01*
X246904Y151665D01*
X246267Y151731D01*
X246203Y151737D01*
X245758Y151775D01*
X245630Y151786D01*
X244992Y151829D01*
X244353Y151860D01*
X243714Y151880D01*
X243074Y151887D01*
X242434Y151881D01*
X242229Y151894D01*
X242078Y151939D01*
X241972Y152011D01*
X241901Y152107D01*
X241858Y152223D01*
X241835Y152356D01*
X241822Y152500D01*
X241813Y152653D01*
X241817Y152834D01*
X241858Y152952D01*
X241925Y153019D01*
X242014Y153048D01*
X242117Y153051D01*
X242227Y153037D01*
X242337Y153020D01*
X242438Y153010D01*
X243139Y152993D01*
X243840Y152974D01*
X244541Y152953D01*
X245242Y152932D01*
X245942Y152910D01*
X246643Y152890D01*
X247344Y152871D01*
X248045Y152854D01*
X248046Y152854D01*
X248968Y152978D01*
X248969Y152978D01*
X248970Y152978D01*
X249756Y153359D01*
X249756Y153360D01*
X249757Y153359D01*
X250397Y153943D01*
X250397Y153944D01*
X250398Y153944D01*
X250881Y154677D01*
X250881Y154678D01*
X251197Y155507D01*
X251197Y155508D01*
X251336Y156379D01*
X251335Y156379D01*
X251336Y156380D01*
X251286Y157239D01*
X251286Y157240D01*
X251039Y158034D01*
X251039Y158035D01*
X250963Y158169D01*
X250963Y158170D01*
X250873Y158282D01*
X250872Y158282D01*
X250770Y158373D01*
X250656Y158443D01*
X250655Y158443D01*
X250530Y158494D01*
X250395Y158527D01*
X250252Y158543D01*
X250251Y158543D01*
X250100Y158543D01*
X249957Y158523D01*
X249957Y158522D01*
X249956Y158523D01*
X249838Y158478D01*
X249837Y158478D01*
X249741Y158413D01*
X249741Y158412D01*
X249740Y158412D01*
X249662Y158329D01*
X249661Y158329D01*
X249597Y158232D01*
X249597Y158231D01*
X249545Y158123D01*
X249545Y158122D01*
X249544Y158122D01*
X249500Y158006D01*
X249501Y158005D01*
X249500Y158005D01*
X249461Y157884D01*
X249404Y157667D01*
X249362Y157449D01*
X249333Y157229D01*
X249313Y157008D01*
X249298Y156787D01*
X249287Y156565D01*
X249274Y156344D01*
X249258Y156123D01*
X249191Y155718D01*
X249071Y155410D01*
X248892Y155185D01*
X248651Y155030D01*
X248342Y154930D01*
X247961Y154873D01*
X247504Y154845D01*
X246967Y154833D01*
X246286Y154828D01*
X245711Y154831D01*
X245209Y154842D01*
X244751Y154857D01*
X244305Y154875D01*
X243840Y154893D01*
X243324Y154910D01*
X242728Y154924D01*
X242472Y154932D01*
X242264Y154949D01*
X242101Y154981D01*
X241977Y155034D01*
X241889Y155113D01*
X241834Y155224D01*
X241807Y155374D01*
X241804Y155568D01*
X241813Y155861D01*
X241817Y156154D01*
X241816Y156447D01*
X241811Y156740D01*
X241811Y156741D01*
X241802Y157034D01*
X241791Y157327D01*
X241777Y157620D01*
X241761Y157913D01*
X241736Y158143D01*
X241736Y158144D01*
X241688Y158347D01*
X241688Y158348D01*
X241618Y158525D01*
X241618Y158526D01*
X241526Y158678D01*
X241525Y158678D01*
X241525Y158679D01*
X241412Y158806D01*
X241412Y158807D01*
X241278Y158911D01*
X241277Y158911D01*
X241123Y158993D01*
X241122Y158993D01*
X240947Y159052D01*
X240945Y159051D01*
X240942Y159050D01*
X240943Y159049D01*
X240942Y159048D01*
X240942Y150109D01*
X240946Y150105D01*
X240966Y150104D01*
X240986Y150103D01*
X241005Y150102D01*
X241025Y150101D01*
X241045Y150100D01*
X241065Y150099D01*
X241085Y150099D01*
X241105Y150098D01*
X241589Y150081D01*
X241952Y150052D01*
X242206Y149991D01*
X242369Y149885D01*
X242457Y149714D01*
X242485Y149460D01*
X242468Y149106D01*
X242422Y148636D01*
X242379Y148254D01*
X242328Y147962D01*
X242253Y147750D01*
X242139Y147606D01*
X241968Y147519D01*
X241723Y147477D01*
X241388Y147470D01*
X240946Y147488D01*
X240942Y147484D01*
X240942Y147483D01*
X240942Y135102D01*
X240943Y135101D01*
X240946Y135098D01*
X240946Y135099D01*
G37*
G36*
X240946Y109076D02*
X240946Y109076D01*
X240947Y109075D01*
X241145Y109117D01*
X241145Y109118D01*
X241146Y109117D01*
X241322Y109195D01*
X241323Y109196D01*
X241477Y109310D01*
X241477Y109311D01*
X241478Y109311D01*
X241607Y109462D01*
X241608Y109462D01*
X241712Y109650D01*
X241713Y109650D01*
X241791Y109874D01*
X241790Y109875D01*
X241791Y109875D01*
X241841Y110136D01*
X241862Y110435D01*
X241869Y110959D01*
X241874Y111483D01*
X241875Y112008D01*
X241875Y112532D01*
X241873Y113056D01*
X241871Y113581D01*
X241869Y114105D01*
X241868Y114625D01*
X241887Y114625D01*
X241891Y114629D01*
X241891Y114630D01*
X241892Y115154D01*
X241894Y115678D01*
X241896Y116203D01*
X241897Y116728D01*
X241897Y117252D01*
X241895Y117776D01*
X241889Y118301D01*
X241880Y118825D01*
X241881Y118976D01*
X241896Y119097D01*
X241926Y119190D01*
X241975Y119258D01*
X242045Y119305D01*
X242141Y119332D01*
X242266Y119343D01*
X242423Y119341D01*
X243203Y119300D01*
X243983Y119255D01*
X244763Y119210D01*
X245543Y119167D01*
X246323Y119130D01*
X247104Y119101D01*
X247886Y119083D01*
X248667Y119079D01*
X248668Y119079D01*
X249267Y119104D01*
X249843Y119188D01*
X249843Y119189D01*
X250379Y119358D01*
X250380Y119359D01*
X250863Y119638D01*
X250863Y119639D01*
X250864Y119639D01*
X251278Y120054D01*
X251278Y120055D01*
X251279Y120055D01*
X251610Y120631D01*
X251610Y120632D01*
X251843Y121394D01*
X251843Y121395D01*
X251963Y122368D01*
X251963Y122462D01*
X251964Y122549D01*
X251965Y122631D01*
X251967Y122709D01*
X251968Y122785D01*
X251970Y122858D01*
X251972Y122931D01*
X251974Y123005D01*
X251979Y123161D01*
X251984Y123312D01*
X251990Y123461D01*
X251996Y123609D01*
X252004Y123757D01*
X252013Y123906D01*
X252023Y124057D01*
X252035Y124211D01*
X252087Y124750D01*
X252156Y125287D01*
X252232Y125823D01*
X252306Y126360D01*
X252370Y126897D01*
X252415Y127436D01*
X252415Y127437D01*
X252432Y127978D01*
X252413Y128523D01*
X252379Y128762D01*
X252379Y128763D01*
X252317Y128958D01*
X252316Y128959D01*
X252225Y129113D01*
X252224Y129114D01*
X252103Y129230D01*
X252102Y129230D01*
X251951Y129309D01*
X251950Y129309D01*
X251769Y129353D01*
X251768Y129353D01*
X251556Y129365D01*
X251313Y129347D01*
X250924Y129278D01*
X250924Y129277D01*
X250923Y129278D01*
X250618Y129104D01*
X250618Y129103D01*
X250617Y129103D01*
X250387Y128848D01*
X250387Y128847D01*
X250386Y128847D01*
X250219Y128533D01*
X250220Y128533D01*
X250219Y128532D01*
X250107Y128182D01*
X250039Y127817D01*
X250005Y127462D01*
X249996Y127137D01*
X249989Y126895D01*
X249966Y126705D01*
X249921Y126564D01*
X249849Y126466D01*
X249747Y126404D01*
X249607Y126375D01*
X249425Y126372D01*
X249195Y126391D01*
X248835Y126431D01*
X248475Y126470D01*
X248115Y126507D01*
X247755Y126542D01*
X247394Y126575D01*
X247033Y126603D01*
X246672Y126627D01*
X246311Y126645D01*
X245832Y126664D01*
X245352Y126678D01*
X244873Y126689D01*
X244393Y126697D01*
X243913Y126702D01*
X243433Y126705D01*
X242954Y126707D01*
X242474Y126707D01*
X242321Y126714D01*
X242191Y126734D01*
X242083Y126770D01*
X241998Y126827D01*
X241934Y126905D01*
X241890Y127010D01*
X241866Y127144D01*
X241861Y127310D01*
X241871Y127745D01*
X241876Y128181D01*
X241878Y128616D01*
X241877Y129052D01*
X241875Y129487D01*
X241871Y129923D01*
X241868Y130359D01*
X241865Y130794D01*
X241864Y130989D01*
X241862Y131183D01*
X241856Y131377D01*
X241843Y131571D01*
X241824Y131764D01*
X241823Y131764D01*
X241824Y131764D01*
X241794Y131956D01*
X241752Y132147D01*
X241696Y132337D01*
X241635Y132486D01*
X241635Y132487D01*
X241562Y132609D01*
X241562Y132610D01*
X241479Y132708D01*
X241478Y132708D01*
X241386Y132785D01*
X241385Y132785D01*
X241285Y132843D01*
X241284Y132843D01*
X241177Y132884D01*
X241176Y132884D01*
X241064Y132911D01*
X241064Y132910D01*
X241063Y132911D01*
X240947Y132926D01*
X240942Y132923D01*
X240942Y132922D01*
X240942Y123005D01*
X240946Y123001D01*
X241873Y123001D01*
X241878Y123005D01*
X241877Y123005D01*
X241878Y123005D01*
X241877Y123187D01*
X241878Y123369D01*
X241878Y123551D01*
X241878Y123732D01*
X241878Y123914D01*
X241877Y124096D01*
X241876Y124277D01*
X241873Y124459D01*
X241877Y124568D01*
X241894Y124656D01*
X241925Y124724D01*
X241968Y124775D01*
X242026Y124811D01*
X242099Y124834D01*
X242187Y124845D01*
X242291Y124846D01*
X242557Y124841D01*
X242823Y124838D01*
X243090Y124836D01*
X243356Y124836D01*
X243622Y124837D01*
X243888Y124839D01*
X244154Y124840D01*
X244421Y124840D01*
X245048Y124839D01*
X245669Y124813D01*
X246285Y124771D01*
X246899Y124718D01*
X247513Y124663D01*
X248129Y124612D01*
X248749Y124573D01*
X249375Y124551D01*
X249502Y124542D01*
X249608Y124520D01*
X249693Y124484D01*
X249758Y124433D01*
X249805Y124365D01*
X249833Y124278D01*
X249844Y124172D01*
X249839Y124044D01*
X249826Y123915D01*
X249814Y123785D01*
X249803Y123655D01*
X249792Y123525D01*
X249782Y123396D01*
X249772Y123266D01*
X249763Y123136D01*
X249754Y123006D01*
X249746Y122879D01*
X249738Y122752D01*
X249729Y122625D01*
X249720Y122498D01*
X249710Y122372D01*
X249699Y122245D01*
X249686Y122119D01*
X249671Y121993D01*
X249619Y121701D01*
X249545Y121459D01*
X249443Y121264D01*
X249312Y121114D01*
X249146Y121004D01*
X248942Y120934D01*
X248697Y120899D01*
X248406Y120897D01*
X247644Y120932D01*
X246883Y120970D01*
X246121Y121010D01*
X245360Y121051D01*
X244598Y121094D01*
X243837Y121136D01*
X243075Y121177D01*
X242314Y121216D01*
X242214Y121225D01*
X242127Y121240D01*
X242053Y121266D01*
X241992Y121303D01*
X241944Y121355D01*
X241909Y121423D01*
X241889Y121510D01*
X241882Y121619D01*
X241884Y121792D01*
X241884Y121965D01*
X241883Y122139D01*
X241882Y122312D01*
X241881Y122485D01*
X241881Y122486D01*
X241878Y122526D01*
X241874Y122529D01*
X241873Y122529D01*
X240946Y122529D01*
X240942Y122526D01*
X240942Y122525D01*
X240942Y109079D01*
X240943Y109078D01*
X240946Y109075D01*
X240946Y109076D01*
G37*
G36*
X240440Y109119D02*
X240440Y109119D01*
X240443Y109120D01*
X240443Y109121D01*
X240444Y109122D01*
X240444Y122525D01*
X240440Y122529D01*
X240439Y122529D01*
X239597Y122529D01*
X239593Y122526D01*
X239593Y122525D01*
X239585Y122199D01*
X239565Y121831D01*
X239509Y121567D01*
X239400Y121389D01*
X239218Y121276D01*
X238946Y121211D01*
X238566Y121175D01*
X238061Y121149D01*
X237476Y121120D01*
X236891Y121087D01*
X236306Y121052D01*
X235721Y121016D01*
X235136Y120980D01*
X234552Y120945D01*
X233967Y120912D01*
X233382Y120882D01*
X233030Y120863D01*
X232722Y120889D01*
X232457Y120967D01*
X232235Y121104D01*
X232055Y121305D01*
X231919Y121579D01*
X231827Y121930D01*
X231778Y122365D01*
X231773Y122456D01*
X231769Y122533D01*
X231765Y122603D01*
X231762Y122669D01*
X231758Y122738D01*
X231754Y122813D01*
X231750Y122901D01*
X231745Y123006D01*
X231743Y123047D01*
X231741Y123091D01*
X231739Y123138D01*
X231736Y123189D01*
X231734Y123243D01*
X231731Y123301D01*
X231728Y123363D01*
X231725Y123430D01*
X231721Y123858D01*
X231743Y124159D01*
X231796Y124354D01*
X231881Y124466D01*
X232002Y124518D01*
X232164Y124532D01*
X232371Y124529D01*
X232624Y124531D01*
X233215Y124558D01*
X233789Y124593D01*
X234361Y124632D01*
X234945Y124673D01*
X235555Y124713D01*
X236206Y124750D01*
X236913Y124781D01*
X237688Y124804D01*
X237935Y124815D01*
X238153Y124830D01*
X238347Y124845D01*
X238524Y124853D01*
X238692Y124849D01*
X238855Y124828D01*
X239023Y124785D01*
X239200Y124715D01*
X239218Y124706D01*
X239235Y124697D01*
X239252Y124686D01*
X239269Y124675D01*
X239284Y124663D01*
X239299Y124651D01*
X239314Y124637D01*
X239327Y124623D01*
X239432Y124471D01*
X239507Y124297D01*
X239557Y124104D01*
X239588Y123896D01*
X239602Y123679D01*
X239604Y123455D01*
X239600Y123229D01*
X239593Y123006D01*
X239596Y123001D01*
X239597Y123002D01*
X239597Y123001D01*
X240439Y123001D01*
X240444Y123005D01*
X240443Y123005D01*
X240444Y123005D01*
X240444Y132913D01*
X240440Y132917D01*
X240439Y132917D01*
X240420Y132916D01*
X240345Y132908D01*
X240344Y132908D01*
X240186Y132878D01*
X240186Y132877D01*
X240185Y132878D01*
X240045Y132826D01*
X240044Y132826D01*
X239923Y132753D01*
X239821Y132658D01*
X239821Y132657D01*
X239739Y132539D01*
X239739Y132538D01*
X239738Y132538D01*
X239676Y132398D01*
X239677Y132397D01*
X239676Y132397D01*
X239635Y132232D01*
X239614Y132043D01*
X239615Y132043D01*
X239614Y132043D01*
X239590Y131474D01*
X239574Y130905D01*
X239564Y130336D01*
X239560Y129767D01*
X239561Y129199D01*
X239566Y128630D01*
X239575Y128062D01*
X239586Y127493D01*
X239580Y127287D01*
X239553Y127118D01*
X239503Y126980D01*
X239429Y126874D01*
X239327Y126796D01*
X239197Y126743D01*
X239036Y126713D01*
X238842Y126704D01*
X237998Y126703D01*
X237155Y126689D01*
X236312Y126664D01*
X235469Y126627D01*
X234628Y126578D01*
X233787Y126518D01*
X233786Y126518D01*
X232946Y126447D01*
X232106Y126365D01*
X231941Y126357D01*
X231808Y126373D01*
X231702Y126411D01*
X231620Y126472D01*
X231558Y126555D01*
X231513Y126661D01*
X231481Y126790D01*
X231458Y126940D01*
X231433Y127133D01*
X231403Y127326D01*
X231369Y127518D01*
X231329Y127710D01*
X231284Y127900D01*
X231284Y127901D01*
X231234Y128089D01*
X231178Y128276D01*
X231117Y128460D01*
X231116Y128460D01*
X231116Y128461D01*
X231018Y128670D01*
X231018Y128671D01*
X230883Y128856D01*
X230883Y128857D01*
X230718Y129015D01*
X230531Y129143D01*
X230531Y129144D01*
X230328Y129238D01*
X230327Y129239D01*
X230116Y129297D01*
X230116Y129298D01*
X229903Y129317D01*
X229902Y129317D01*
X229694Y129295D01*
X229694Y129294D01*
X229693Y129294D01*
X229478Y129224D01*
X229477Y129223D01*
X229477Y129224D01*
X229316Y129122D01*
X229316Y129121D01*
X229315Y129121D01*
X229200Y128993D01*
X229200Y128992D01*
X229124Y128843D01*
X229124Y128842D01*
X229078Y128675D01*
X229079Y128674D01*
X229078Y128674D01*
X229055Y128495D01*
X229055Y128494D01*
X229046Y128307D01*
X229044Y128115D01*
X229044Y127474D01*
X229060Y126834D01*
X229089Y126194D01*
X229128Y125555D01*
X229176Y124917D01*
X229230Y124279D01*
X229287Y123642D01*
X229346Y123005D01*
X229351Y122952D01*
X229356Y122900D01*
X229360Y122848D01*
X229365Y122795D01*
X229369Y122743D01*
X229374Y122690D01*
X229378Y122638D01*
X229383Y122585D01*
X229474Y121872D01*
X229632Y121196D01*
X229883Y120577D01*
X229884Y120577D01*
X229884Y120576D01*
X230255Y120033D01*
X230256Y120033D01*
X230774Y119585D01*
X230775Y119585D01*
X230775Y119584D01*
X231467Y119251D01*
X231468Y119252D01*
X231468Y119251D01*
X232360Y119052D01*
X232361Y119052D01*
X233480Y119006D01*
X233481Y119006D01*
X234135Y119065D01*
X234789Y119118D01*
X235445Y119165D01*
X236100Y119207D01*
X236756Y119245D01*
X237413Y119278D01*
X238070Y119309D01*
X238727Y119338D01*
X238980Y119341D01*
X239182Y119322D01*
X239337Y119278D01*
X239452Y119204D01*
X239532Y119094D01*
X239582Y118944D01*
X239608Y118749D01*
X239616Y118504D01*
X239610Y117491D01*
X239600Y116478D01*
X239590Y115465D01*
X239585Y114452D01*
X239587Y113439D01*
X239602Y112426D01*
X239633Y111414D01*
X239633Y111413D01*
X239684Y110401D01*
X239723Y110085D01*
X239796Y109810D01*
X239797Y109810D01*
X239797Y109809D01*
X239903Y109576D01*
X240039Y109385D01*
X240039Y109384D01*
X240203Y109236D01*
X240204Y109236D01*
X240204Y109235D01*
X240394Y109131D01*
X240395Y109131D01*
X240395Y109130D01*
X240438Y109118D01*
X240439Y109118D01*
X240440Y109119D01*
G37*
D10*
X455400Y240400D02*
X454290Y218418D01*
X451032Y197070D01*
X445734Y176466D01*
X438504Y156712D01*
X429451Y137918D01*
X418681Y120192D01*
X406305Y103640D01*
X392428Y88372D01*
X377160Y74496D01*
X360609Y62119D01*
X342882Y51349D01*
X324088Y42296D01*
X304334Y35066D01*
X283730Y29768D01*
X262383Y26510D01*
X240400Y25400D01*
X218418Y26510D01*
X197070Y29768D01*
X176466Y35066D01*
X156712Y42296D01*
X137918Y51349D01*
X120192Y62119D01*
X103640Y74496D01*
X88372Y88372D01*
X74496Y103640D01*
X62119Y120192D01*
X51349Y137918D01*
X42296Y156712D01*
X35066Y176466D01*
X29768Y197070D01*
X26510Y218418D01*
X25400Y240400D01*
X26510Y262383D01*
X29768Y283730D01*
X35066Y304334D01*
X42296Y324088D01*
X51349Y342882D01*
X62119Y360609D01*
X74496Y377160D01*
X88372Y392428D01*
X103640Y406305D01*
X120192Y418681D01*
X137918Y429451D01*
X156712Y438504D01*
X176466Y445734D01*
X197070Y451032D01*
X218418Y454290D01*
X240400Y455400D01*
X262383Y454290D01*
X283730Y451032D01*
X304334Y445734D01*
X324088Y438504D01*
X342882Y429451D01*
X360609Y418681D01*
X377160Y406305D01*
X392428Y392428D01*
X406305Y377160D01*
X418681Y360609D01*
X429451Y342882D01*
X438504Y324088D01*
X445734Y304334D01*
X451032Y283730D01*
X454290Y262383D01*
X455400Y240400D01*
D11*
X241300Y257125D03*
X291300Y223125D03*
X191300Y223125D03*
D12*
X341199Y120650D03*
X319202Y107950D03*
D13*
X98375Y146600D02*
X98375Y168600D01*
X98375Y301300D02*
X98375Y323300D01*
D12*
X141402Y120650D03*
X163399Y107950D03*
D14*
X241300Y368300D03*
X215900Y368300D03*
X266700Y368300D03*
D15*
X361950Y238175D03*
D16*
X387350Y238175D03*
M02*
