G04 EAGLE Gerber RS-274X export*
G75*
%MOMM*%
%FSLAX34Y34*%
%LPD*%
%INSilk top*%
%IPPOS*%
%AMOC8*
5,1,8,0,0,1.08239X$1,22.5*%
G01*
%ADD10C,0.001000*%


D10*
X455400Y240400D02*
X454290Y218418D01*
X451032Y197070D01*
X445734Y176466D01*
X438504Y156712D01*
X429451Y137918D01*
X418681Y120192D01*
X406305Y103640D01*
X392428Y88372D01*
X377160Y74496D01*
X360609Y62119D01*
X342882Y51349D01*
X324088Y42296D01*
X304334Y35066D01*
X283730Y29768D01*
X262383Y26510D01*
X240400Y25400D01*
X218418Y26510D01*
X197070Y29768D01*
X176466Y35066D01*
X156712Y42296D01*
X137918Y51349D01*
X120192Y62119D01*
X103640Y74496D01*
X88372Y88372D01*
X74496Y103640D01*
X62119Y120192D01*
X51349Y137918D01*
X42296Y156712D01*
X35066Y176466D01*
X29768Y197070D01*
X26510Y218418D01*
X25400Y240400D01*
X26510Y262383D01*
X29768Y283730D01*
X35066Y304334D01*
X42296Y324088D01*
X51349Y342882D01*
X62119Y360609D01*
X74496Y377160D01*
X88372Y392428D01*
X103640Y406305D01*
X120192Y418681D01*
X137918Y429451D01*
X156712Y438504D01*
X176466Y445734D01*
X197070Y451032D01*
X218418Y454290D01*
X240400Y455400D01*
X262383Y454290D01*
X283730Y451032D01*
X304334Y445734D01*
X324088Y438504D01*
X342882Y429451D01*
X360609Y418681D01*
X377160Y406305D01*
X392428Y392428D01*
X406305Y377160D01*
X418681Y360609D01*
X429451Y342882D01*
X438504Y324088D01*
X445734Y304334D01*
X451032Y283730D01*
X454290Y262383D01*
X455400Y240400D01*
M02*
